<?xml version="1.0" encoding="utf-8"?>
<!-- Generator: Adobe Illustrator 24.1.2, SVG Export Plug-In . SVG Version: 6.00 Build 0)  -->
<svg version="1.1" id="Layer_1" xmlns="http://www.w3.org/2000/svg" xmlns:xlink="http://www.w3.org/1999/xlink" x="0px" y="0px"
	 viewBox="0 0 742 620" style="enable-background:new 0 0 742 620;" xml:space="preserve">
<style type="text/css">
	.st0{fill:#4090EF;}
</style>
<path class="st0" d="M370.7999878,613.2999878c-96.5,0-192.8999939,0.0999756-289.3999939,0
	c-37.4000015,0-67.4000015-23-75.6999969-58.2000122c-1.5-6.5-2.0999999-13.5-2.0999999-20.2000122
	C3.5,385,3.5,235.1000061,3.5999999,85.0999985c0-45.9000015,32.7000008-78.4000015,78.5999985-78.4000015
	c192.6999969,0,385.2999878,0,578,0c45.4000244,0,78.2000122,32.7000008,78.2999878,78
	c0.0999756,150.1000061,0.0999756,300.2999878,0,450.3999634c0,45.4000244-32.7999878,78-78.2000122,78.0999756
	C563.7000122,613.2999878,467.2999878,613.2999878,370.7999878,613.2999878z M371.1000061,41.7000008
	c-96.1999817,0-192.3999939,0-288.6000061,0c-27,0-43.9000015,16.7000008-43.9000015,43.4999962
	c0,149.8999939,0,299.7999878,0,449.7000122c0,26.2999878,17,43.2999878,43.2999954,43.2999878
	c28.1999969,0.0999756,56.3999939,0,84.5,0c12.8999939,0,17.6000061-3.5,22.1000061-15.7000122
	c5.8000031-15.4000244,11.1999969-31,17.8999939-46.0999756c27.5-62,67.1999817-114.6000061,123.1000061-153.8999939
	c67.3999939-47.3999939,143.7000122-66.5,224.7999878-69.8999939c42.0999756-1.7999878,84,1.5,125.7000122,7.3999939
	c15.2999878,2.2000122,23.4000244-5.1000061,23.4000244-20.7000122c0-64.1000061,0-128.3000031,0-192.3999939
	c0-28.7999992-16.2999878-45.0999985-45.2000122-45.0999985C562.5,41.7000008,466.7999878,41.7000008,371.1000061,41.7000008z"/>
<path class="st0" d="M207.6999969,310.5c-54.5999908,0-98.9000015-44.3999939-99-99.3999939
	c-0.0999985-54.6999969,44.4000092-99.5,98.9000092-99.4000015c54.5,0,99,44.7000046,99,99.4000015
	C306.6000061,266.1000061,262.3999939,310.5,207.6999969,310.5z"/>
</svg>
