<?xml version="1.0" encoding="utf-8"?>
<!-- Generator: Adobe Illustrator 24.1.2, SVG Export Plug-In . SVG Version: 6.00 Build 0)  -->
<svg version="1.1" id="Layer_1" xmlns="http://www.w3.org/2000/svg" xmlns:xlink="http://www.w3.org/1999/xlink" x="0px" y="0px"
	 viewBox="0 0 742 620" style="enable-background:new 0 0 742 620;" xml:space="preserve">
<style type="text/css">
	.st0{opacity:0.5;fill:#4090EF;}
</style>
<path class="st0" d="M370.8,613.3c-96.5,0-192.9,0.1-289.4,0c-37.4,0-67.4-23-75.7-58.2c-1.5-6.5-2.1-13.5-2.1-20.2
	C3.5,385,3.5,235.1,3.6,85.1c0-45.9,32.7-78.4,78.6-78.4c192.7,0,385.3,0,578,0c45.4,0,78.2,32.7,78.3,78
	c0.1,150.1,0.1,300.3,0,450.4c0,45.4-32.8,78-78.2,78.1C563.7,613.3,467.3,613.3,370.8,613.3z M371.1,41.7c-96.2,0-192.4,0-288.6,0
	c-27,0-43.9,16.7-43.9,43.5c0,149.9,0,299.8,0,449.7c0,26.3,17,43.3,43.3,43.3c28.2,0.1,56.4,0,84.5,0c12.9,0,17.6-3.5,22.1-15.7
	c5.8-15.4,11.2-31,17.9-46.1c27.5-62,67.2-114.6,123.1-153.9c67.4-47.4,143.7-66.5,224.8-69.9c42.1-1.8,84,1.5,125.7,7.4
	c15.3,2.2,23.4-5.1,23.4-20.7c0-64.1,0-128.3,0-192.4c0-28.8-16.3-45.1-45.2-45.1C562.5,41.7,466.8,41.7,371.1,41.7z"/>
<path class="st0" d="M207.7,310.5c-54.6,0-98.9-44.4-99-99.4c-0.1-54.7,44.4-99.5,98.9-99.4c54.5,0,99,44.7,99,99.4
	C306.6,266.1,262.4,310.5,207.7,310.5z"/>
</svg>
