<svg width="742" height="620" viewBox="0 0 742 620" fill="none" xmlns="http://www.w3.org/2000/svg">
<path d="M624.167 52.3056C660.618 52.3056 690.167 81.8548 690.167 118.306V501.694C690.167 538.145 660.617 567.694 624.167 567.694H117.833C81.3825 567.694 51.8333 538.145 51.8333 501.694V118.306C51.8333 81.8547 81.3825 52.3056 117.833 52.3056H624.167ZM742 66.3819C742 29.9311 712.451 0.381958 676 0.381958H66C29.5492 0.381958 0 29.9312 0 66.382V553.618C0 590.069 29.5492 619.618 66 619.618H676C712.451 619.618 742 590.069 742 553.618V66.3819Z" fill="#4090EF" fill-opacity="1"/>
<path d="M356.208 338.5L428 224.5L599 481H143L285.5 282.64L356.208 338.5Z" fill="#4090EF" fill-opacity="1"/>
<path d="M200 139C168.536 139 143 164.536 143 196C143 227.493 168.536 253 200 253C231.464 253 257 227.493 257 196C257 164.536 231.464 139 200 139Z" fill="#4090EF" fill-opacity="1"/>
</svg>
