<svg width="36" height="30" viewBox="0 0 36 30" fill="none" xmlns="http://www.w3.org/2000/svg">
<path d="M33 3V27H3V3H33ZM36 0H0V30H36V0ZM28.5 19.638V10.362C29.3715 10.0515 30 9.228 30 8.25C30 7.008 28.992 6 27.75 6C26.772 6 25.9485 6.6285 25.638 7.5H10.362C10.0515 6.6285 9.228 6 8.25 6C7.008 6 6 7.008 6 8.25C6 9.228 6.6285 10.0515 7.5 10.362V19.638C6.6285 19.9485 6 20.772 6 21.75C6 22.992 7.008 24 8.25 24C9.228 24 10.0515 23.3715 10.362 22.5H25.638C25.9485 23.3715 26.772 24 27.75 24C28.992 24 30 22.992 30 21.75C30 20.772 29.3715 19.9485 28.5 19.638ZM25.638 9C25.8645 9.636 26.364 10.1355 27 10.362V12H22.5V9H25.638ZM21 9V12H15V9H21ZM21 13.5V16.5H15V13.5H21ZM9 10.362C9.636 10.1355 10.1355 9.636 10.362 9H13.5V12H9V10.362ZM9 13.5H13.5V16.5H9V13.5ZM10.362 21C10.137 20.364 9.636 19.8645 9 19.638V18H13.5V21H10.362ZM15 21V18H21V21H15ZM27 19.638C26.364 19.8645 25.863 20.364 25.638 21H22.5V18H27V19.638ZM22.5 16.5V13.5H27V16.5H22.5Z" fill="white"/>
</svg>
