<svg width="43" height="32" viewBox="0 0 43 32" fill="none" xmlns="http://www.w3.org/2000/svg">
<path d="M10.0482 20.0828H3.63123C3.76218 21.1304 4.0241 22.0471 4.41697 22.9638C5.85751 26.8926 8.60763 30.0356 13.0602 31.9999L15.6794 26.2378C12.5364 25.0592 10.8339 22.7019 10.0482 20.0828Z" fill="white"/>
<path d="M11.7862 16.0707H5.50024H0V18.6898H5.6312H11.9172H29.5253L23.8941 16.0707H11.7862Z" fill="white"/>
<path d="M37.0612 16.0707L35.8826 18.6898H42.0376V16.0707H37.0612Z" fill="white"/>
<path d="M34.5372 15.0707L34.7991 14.5469L37.6802 8.39184L33.8824 9.96333C30.7394 2.10585 21.9652 -1.95385 13.8458 0.927228C7.82174 3.15351 4.02395 8.52279 3.50012 14.5469H9.78611C10.179 11.2729 12.4053 8.12992 15.9411 6.82034C20.7866 4.98693 26.1559 7.47513 27.9893 12.1896L24.3224 13.6302L26.0249 14.4159L27.0726 14.9397L28.1202 15.4636L31.6561 17.0351L32.7038 17.5589L33.2276 17.8208L33.3585 17.5589L33.6205 17.0351L34.4062 15.4636L34.5372 15.0707Z" fill="white"/>
</svg>
