<svg width="30" height="30" viewBox="0 0 30 30" fill="none" xmlns="http://www.w3.org/2000/svg">
<path fill-rule="evenodd" clip-rule="evenodd" d="M29.1128 25.0719L22.8433 18.8508C24.0589 16.9508 24.7618 14.6984 24.7618 12.2872C24.7618 5.51234 19.2078 -3.33778e-05 12.3803 -3.33778e-05C5.55273 -3.33778e-05 0 5.51234 0 12.2872C0 19.062 5.55273 24.5744 12.3815 24.5744C14.6918 24.5744 16.856 23.9432 18.7077 22.8457L25.0326 29.1218C27.7334 31.798 31.8148 27.7518 29.1128 25.0719ZM3.83828 12.2872C3.83828 7.61354 7.67153 3.80988 12.3815 3.80988C17.0915 3.80988 20.9248 7.61229 20.9248 12.2872C20.9248 16.9621 17.0915 20.7645 12.3815 20.7645C7.67153 20.7645 3.83828 16.9608 3.83828 12.2872ZM7.39988 12C7.39988 11.4477 7.8476 11 8.39988 11H11.0001V8.39999C11.0001 7.84771 11.4478 7.39999 12.0001 7.39999C12.5524 7.39999 13.0001 7.84771 13.0001 8.39999V11H15.5999C16.1522 11 16.5999 11.4477 16.5999 12C16.5999 12.5523 16.1522 13 15.5999 13H13.0001V15.6C13.0001 16.1523 12.5524 16.6 12.0001 16.6C11.4478 16.6 11.0001 16.1523 11.0001 15.6V13H8.39988C7.8476 13 7.39988 12.5523 7.39988 12Z" fill="white"/>
</svg>
