<svg width="30" height="30" viewBox="0 0 30 30" fill="none" xmlns="http://www.w3.org/2000/svg">
<path fill-rule="evenodd" clip-rule="evenodd" d="M22.8433 18.8508L29.1128 25.0719C31.8148 27.7518 27.7334 31.798 25.0326 29.1218L18.7077 22.8457C16.856 23.9432 14.6918 24.5744 12.3815 24.5744C5.55273 24.5744 0 19.062 0 12.2872C0 5.51234 5.55273 -3.33778e-05 12.3803 -3.33778e-05C19.2078 -3.33778e-05 24.7618 5.51234 24.7618 12.2872C24.7618 14.6984 24.0589 16.9508 22.8433 18.8508ZM12.3815 3.80988C7.67153 3.80988 3.83828 7.61354 3.83828 12.2872C3.83828 16.9608 7.67153 20.7645 12.3815 20.7645C17.0915 20.7645 20.9248 16.9621 20.9248 12.2872C20.9248 7.61229 17.0915 3.80988 12.3815 3.80988ZM8.40027 11C7.84798 11 7.40027 11.4477 7.40027 12C7.40027 12.5523 7.84798 13 8.40027 13H15.6003C16.1526 13 16.6003 12.5523 16.6003 12C16.6003 11.4477 16.1526 11 15.6003 11H8.40027Z" fill="white"/>
</svg>
