<svg width="25" height="30" viewBox="0 0 25 30" fill="none" xmlns="http://www.w3.org/2000/svg">
<path d="M25 23.75C25 27.2013 19.4037 30 12.5 30C5.59625 30 0 27.2013 0 23.75C0 22.0625 1.34375 20.5338 3.51875 19.4088C3.8925 20.1675 4.355 20.8738 4.9025 21.51C3.35625 22.2563 2.5 23.125 2.5 23.75C2.5 25.0725 6.29625 27.5 12.5 27.5C18.7038 27.5 22.5 25.0725 22.5 23.75C22.5 23.125 21.6437 22.2563 20.0962 21.51C20.6437 20.8738 21.1075 20.1675 21.48 19.4088C23.6562 20.5338 25 22.0625 25 23.75ZM20 15.07C20 19.1737 16.6437 22.5 12.5 22.5C8.35625 22.5 5 19.1737 5 15.07C5 10.9675 7.935 6.74625 12.5 0C17.065 6.74625 20 10.9675 20 15.07ZM9.6875 9.9475C9.6875 12.1763 13.4375 11.5775 13.4375 7.91375C13.4375 6.66375 12.9125 5.48125 12.4738 4.80125C11.5525 6.155 9.6875 8.41625 9.6875 9.9475Z" fill="white"/>
</svg>
