<svg width="35" height="35" viewBox="0 0 35 35" fill="none" xmlns="http://www.w3.org/2000/svg">
<path fill-rule="evenodd" clip-rule="evenodd" d="M10 3H25C28.866 3 32 6.13401 32 10V25C32 28.866 28.866 32 25 32H10C6.13401 32 3 28.866 3 25V10C3 6.13401 6.13401 3 10 3ZM0 10C0 4.47715 4.47715 0 10 0H25C30.5228 0 35 4.47715 35 10V25C35 30.5228 30.5228 35 25 35H10C4.47715 35 0 30.5228 0 25V10ZM15.9744 18.5455V23.054H19.0256V18.5455H23.5341V15.4943H19.0256V10.9858H15.9744V15.4943H11.4659V18.5455H15.9744Z" fill="white"/>
</svg>
