<svg width="53" height="79" viewBox="0 0 53 79" fill="none" xmlns="http://www.w3.org/2000/svg">
<path fill-rule="evenodd" clip-rule="evenodd" d="M12 0.5C5.64873 0.5 0.5 5.64871 0.5 12V66.6C0.5 72.9513 5.64874 78.1 12 78.1H40.7C47.0513 78.1 52.2 72.9513 52.2 66.6V12C52.2 5.64872 47.0513 0.5 40.7 0.5H12ZM3.5 12C3.5 7.30557 7.30557 3.5 12 3.5H40.7C45.3944 3.5 49.2 7.30558 49.2 12V66.6C49.2 71.2944 45.3944 75.1 40.7 75.1H12C7.30559 75.1 3.5 71.2944 3.5 66.6V12ZM26.3001 42.7999C28.2001 42.7999 29.8001 41.1999 29.8001 39.2999C29.8001 37.3999 28.2001 35.7999 26.3001 35.7999C24.4001 35.7999 22.8001 37.3999 22.8001 39.2999C22.8001 41.1999 24.4001 42.7999 26.3001 42.7999ZM24.8243 32.562C24.7509 32.5745 24.6763 32.5872 24.6001 32.5999V28.8999H17.6001L26.3001 18.3999L35.0001 28.8999H28.0001V32.5999C27.5001 32.4999 26.9001 32.3999 26.3001 32.3999C25.7763 32.3999 25.3287 32.4761 24.8243 32.562ZM27.8759 46.0378C27.9493 46.0253 28.0239 46.0126 28.1001 45.9999V49.6999H35.1001L26.4001 60.1999L17.7001 49.6999H24.7001V45.9999C25.2001 46.0999 25.8001 46.1999 26.4001 46.1999C26.9239 46.1999 27.3715 46.1237 27.8759 46.0378Z" fill="white"/>
</svg>
