<svg width="53" height="78" viewBox="0 0 53 78" fill="none" xmlns="http://www.w3.org/2000/svg">
<path fill-rule="evenodd" clip-rule="evenodd" d="M12 0C5.64871 0 0.5 5.14871 0.5 11.5V66.1C0.5 72.4513 5.64874 77.6 12 77.6H40.7C47.0513 77.6 52.2 72.4513 52.2 66.1V11.5C52.2 5.14872 47.0513 0 40.7 0H12ZM3.5 11.5C3.5 6.80557 7.30557 3 12 3H40.7C45.3944 3 49.2 6.80558 49.2 11.5V66.1C49.2 70.7944 45.3944 74.6 40.7 74.6H12C7.3056 74.6 3.5 70.7944 3.5 66.1V11.5ZM22.7999 38.8C22.7999 40.7 24.3999 42.3 26.2999 42.3C28.2999 42.3 29.7999 40.7 29.7999 38.8C29.7999 36.9 28.1999 35.3 26.2999 35.3C24.3999 35.3 22.7999 36.9 22.7999 38.8ZM33.1379 37.2245C33.1254 37.151 33.1126 37.0763 33.0999 37H36.7999V30L47.2999 38.7L36.7999 47.4V40.4H33.0999C33.1999 39.9 33.2999 39.3 33.2999 38.7C33.2999 38.1763 33.2237 37.7288 33.1379 37.2245ZM19.562 40.2758C19.5745 40.3492 19.5872 40.4238 19.5999 40.5H15.8999V47.5L5.3999 38.8L15.8999 30.1V37.1H19.5999C19.4999 37.6 19.3999 38.2 19.3999 38.8C19.3999 39.3238 19.4761 39.7714 19.562 40.2758Z" fill="white"/>
</svg>
