<svg width="75" height="75" viewBox="0 0 75 75" fill="none" xmlns="http://www.w3.org/2000/svg">
<path d="M66.6667 71.8681C66.6667 70.2198 65.1815 68.7363 63.5313 68.7363C52.8878 68.7363 13.8614 68.7363 3.13531 68.7363C1.48515 68.7363 0 70.2198 0 71.8681C0 73.5165 1.48515 75 3.13531 75H63.5313C65.1815 75 66.6667 73.5989 66.6667 71.8681ZM16.6667 42.4451C11.1386 58.7637 10.4785 60.0824 10.4785 61.4835C10.4785 63.7088 12.3762 64.6154 13.6139 64.6154C15.099 64.6154 16.4191 64.0385 32.6733 58.4341L16.6667 42.4451ZM21.0396 37.9945L37.0462 53.9835L73.7624 17.3077C74.5875 16.4835 75 15.4121 75 14.3407C75 13.2692 74.5875 12.1978 73.7624 11.3736C70.8746 8.48901 66.5016 4.12088 63.6139 1.23626C62.7888 0.412088 61.7162 0 60.6436 0C59.571 0 58.4983 0.412088 57.6733 1.23626L21.0396 37.9945Z" fill="white"/>
</svg>
