<svg width="77" height="76" viewBox="0 0 77 76" fill="none" xmlns="http://www.w3.org/2000/svg">
<path fill-rule="evenodd" clip-rule="evenodd" d="M0.915344 11.9999C0.915344 5.50874 6.17749 0.246582 12.6687 0.246582H64.3247C70.8159 0.246582 76.0781 5.50874 76.0781 11.9999V63.656C76.0781 70.1472 70.8159 75.4093 64.3248 75.4093H12.6687C6.17752 75.4093 0.915344 70.1472 0.915344 63.656V11.9999ZM12.6687 3.75328C8.1142 3.75328 4.42206 7.44544 4.42206 11.9999V19.6752H21.8726V20.0574H4.42206V55.5032H21.9681V41.8408L22.3503 42.1274V55.5032H35.4395L35.8217 55.8853H22.3503V71.9026H54.5477V55.8853H41.1719L41.4585 55.5032H54.5477V42.1274L54.9298 41.8408V55.5032H72.5714V20.0574H54.9299V19.6752H72.5714V11.9999C72.5714 7.44543 68.8792 3.75328 64.3247 3.75328H54.9298V19.6751H54.5476V3.75328H22.3502V19.6751H21.968V3.75328H12.6687ZM4.42206 63.656V55.8853H21.9681V71.9026H12.6687C8.1142 71.9026 4.42206 68.2105 4.42206 63.656ZM64.3248 71.9026H54.9298V55.8853H72.5714V63.656C72.5714 68.2105 68.8792 71.9026 64.3248 71.9026ZM35.8217 19.6752L35.4395 20.0574H22.3503V19.6752H35.8217ZM21.968 33.7197L22.3502 33.4331V20.0573H21.968V33.7197ZM41.1719 19.6752L41.4585 20.0574H54.5477L54.5476 33.4331L54.9298 33.7197V20.0573L54.5477 20.0574V19.6752H41.1719ZM41.7452 37.828C41.7452 36.0127 40.3121 34.5796 38.4968 34.5796C36.6815 34.5796 35.2484 36.0127 35.2484 37.828C35.2484 39.6433 36.6815 41.0764 38.4968 41.0764C40.3121 41.0764 41.7452 39.6433 41.7452 37.828ZM32 37.7325C32 38.3057 32.0955 38.879 32.1911 39.3567H28.7516V45.8535L19.0063 37.7325L28.7516 29.6115V36.1083H32.1911C32.1789 36.1811 32.1668 36.2524 32.1548 36.3225C32.0728 36.8044 32 37.232 32 37.7325ZM44.8981 37.828C44.8981 37.2548 44.8025 36.6815 44.707 36.2038H48.1465V29.707L57.8917 37.828L48.1465 45.949V39.4522H44.707C44.7191 39.3794 44.7313 39.3082 44.7432 39.238C44.8253 38.7561 44.8981 38.3285 44.8981 37.828ZM38.4012 44.2293C38.9745 44.2293 39.5478 44.1338 40.0255 44.0382V47.4777H46.5223L38.4012 57.2229L30.2802 47.4777H36.777V44.0382C36.8499 44.0504 36.9212 44.0625 36.9913 44.0744C37.4732 44.1565 37.9008 44.2293 38.4012 44.2293ZM38.4968 31.3312C37.9236 31.3312 37.3503 31.4268 36.8726 31.5223V28.0828H30.3758L38.4968 18.3376L46.6178 28.0828H40.121V31.5223C40.0482 31.5102 39.977 31.498 39.9069 31.4861C39.4249 31.404 38.9973 31.3312 38.4968 31.3312Z" fill="white"/>
</svg>
