<svg width="88" height="51" viewBox="0 0 88 51" fill="none" xmlns="http://www.w3.org/2000/svg">
<path fill-rule="evenodd" clip-rule="evenodd" d="M11.8999 0.5C5.54863 0.5 0.399902 5.64872 0.399902 12V39.4C0.399902 45.7513 5.54862 50.9 11.8999 50.9H76.1999C82.5512 50.9 87.6999 45.7513 87.6999 39.4V12C87.6999 5.64873 82.5512 0.5 76.1999 0.5H11.8999ZM3.3999 12C3.3999 7.30558 7.20548 3.5 11.8999 3.5H21.8834V15.5835H3.3999V12ZM3.3999 16.0165V35.3835H21.8834V16.0165H3.3999ZM3.3999 35.8165V39.4C3.3999 44.0944 7.20548 47.9 11.8999 47.9H21.8834V35.8165H3.3999ZM22.3164 47.9H65.9835V35.8165H22.3164V47.9ZM66.4165 47.9H76.1999C80.8943 47.9 84.6999 44.0944 84.6999 39.4V35.8165H66.4165V47.9ZM84.6999 35.3835V16.0165H66.4165V35.3835H84.6999ZM84.6999 15.5835V12C84.6999 7.30558 80.8943 3.5 76.1999 3.5H66.4165V15.5835H84.6999ZM65.9835 3.5H22.3164V15.5835H65.9835V3.5ZM65.9835 16.0165V35.3835H22.3164V16.0165H65.9835ZM31.5999 18.3C30.9999 18 30.2999 17.9 29.6999 17.9C28.5999 17.9 27.7999 18.1 26.9999 18.6C26.1999 19.1 25.5999 19.7001 25.1999 20.5C24.7999 21.3 24.5999 22.2001 24.5999 23.1C24.5999 24.1 24.8999 24.9001 25.2999 25.7001C25.6999 26.5 26.2999 27.1 26.9999 27.5C27.6999 28 28.4999 28.2001 29.3999 28.2001C29.8999 28.2001 30.3999 28.2001 30.8999 28C31.3999 27.8 31.7999 27.6 32.1999 27.3C32.5999 27 32.8999 26.6 33.1999 26.2001H33.2999C33.2999 28.1 32.9999 29.6 32.2999 30.6C31.5999 31.6 30.6999 32.1 29.4999 32.1C28.6999 32.1 28.0999 31.8 27.5999 31.4C27.0999 31 26.7999 30.4001 26.5999 29.7001H24.7999C24.8999 30.5 25.1999 31.2 25.5999 31.8C25.9999 32.4 26.4999 32.9001 27.1999 33.2001C27.8999 33.5 28.5999 33.7001 29.4999 33.7001C30.2999 33.7001 31.0999 33.5 31.7999 33.1C32.3999 32.8 32.9999 32.2001 33.4999 31.5C33.9999 30.7001 34.2999 29.8 34.5999 28.8C34.8999 27.8 34.9999 26.6 34.9999 25.2001C34.9999 23.8001 34.7999 22.6 34.4999 21.7001C34.1999 20.8001 33.7999 20 33.2999 19.5C32.7999 18.9 32.1999 18.5 31.5999 18.3ZM27.9999 20C28.4999 19.7001 29.0999 19.5 29.6999 19.5C30.2999 19.5 30.8999 19.7 31.4999 19.9C31.9999 20.2 32.3999 20.7001 32.6999 21.2001C32.9999 21.7001 33.0999 22.3 33.0999 22.9C33.0999 23.4 32.9999 23.8001 32.7999 24.2001C32.5999 24.6 32.3999 25 32.0999 25.3C31.7999 25.7 31.3999 25.9001 30.9999 26.1C30.5999 26.3 30.1999 26.4 29.6999 26.4C28.9999 26.4 28.4999 26.2001 27.9999 25.9C27.4999 25.6 27.0999 25.2001 26.7999 24.7001C26.4999 24.2001 26.3999 23.6 26.3999 23C26.3999 22.3 26.4999 21.9 26.7999 21.3C27.0999 20.7 27.4999 20.3 27.9999 20ZM39.1999 23.7001C38.7999 23.7001 38.4999 23.6 38.2999 23.3C37.9999 23 37.8999 22.7 37.8999 22.4C37.8999 22.1 37.9999 21.7001 38.2999 21.5C38.5999 21.2001 38.8999 21.1 39.1999 21.1C39.4999 21.1 39.8999 21.2001 40.0999 21.5C40.3999 21.8 40.4999 22.1 40.4999 22.4C40.4999 22.6 40.3999 22.9 40.2999 23.1C40.1999 23.3001 39.9999 23.5 39.7999 23.6C39.7584 23.6 39.6827 23.6172 39.594 23.6373C39.4685 23.6657 39.317 23.7001 39.1999 23.7001ZM39.1999 31.4C38.7999 31.4 38.4999 31.3 38.2999 31C37.9999 30.7001 37.8999 30.4001 37.8999 30.1C37.8999 29.8 37.9999 29.4001 38.2999 29.2001C38.5999 28.9001 38.8999 28.8 39.1999 28.8C39.4999 28.8 39.8999 28.9001 40.0999 29.2001C40.3999 29.5 40.4999 29.8 40.4999 30.1C40.4999 30.3 40.3999 30.6 40.2999 30.8C40.1999 31 39.9999 31.2 39.7999 31.3C39.7584 31.3 39.6827 31.3172 39.594 31.3373C39.4685 31.3657 39.317 31.4 39.1999 31.4ZM48.9999 33.4001V18.1H47.1999L43.3999 20.6V22.5L47.0999 20H47.1999V33.4001H48.9999ZM58.4999 33.6C57.8999 33.6 57.1999 33.5 56.5999 33.2001C55.9999 33 55.3999 32.6001 54.8999 32C54.3999 31.5 53.9999 30.7 53.6999 29.8C53.3999 28.9 53.1999 27.7 53.1999 26.3C53.1999 24.9 53.2999 23.7001 53.5999 22.7001C53.8999 21.7001 54.1999 20.8 54.6999 20C55.1999 19.3 55.7999 18.7 56.3999 18.4C57.0999 18 57.8999 17.8 58.6999 17.8C59.5999 17.8 60.2999 18 60.9999 18.3C61.6999 18.6 62.1999 19.1 62.5999 19.7001C62.9999 20.3001 63.2999 21 63.3999 21.8H61.5999C61.3999 21.1 61.0999 20.5 60.5999 20.1C60.0999 19.6 59.4999 19.4 58.6999 19.4C57.4999 19.4 56.5999 19.9 55.8999 20.9C55.1999 21.9 54.8999 23.4 54.8999 25.3H54.9999C55.2999 24.9 55.5998 24.5 55.9999 24.2001C56.3999 23.9001 56.7999 23.7001 57.2999 23.5C57.7999 23.3 58.2999 23.3 58.7999 23.3C59.6999 23.3 60.4999 23.5 61.1999 24C61.8999 24.4 62.4999 25 62.8999 25.8C63.2999 26.6 63.5999 27.4 63.5999 28.4C63.5999 29.3 63.3998 30.2001 62.9999 31C62.5999 31.8 61.9999 32.4001 61.1999 32.9001C60.3999 33.4001 59.4999 33.6 58.4999 33.6ZM58.4999 31.9C59.0998 31.9 59.6999 31.7001 60.1999 31.4C60.6999 31.1 61.0999 30.7001 61.3999 30.1C61.6999 29.6 61.7999 29 61.7999 28.3C61.7999 27.7 61.6999 27.1 61.3999 26.6C61.0999 26.1 60.6999 25.7001 60.1999 25.4C59.6999 25.1 59.1999 24.9 58.4999 24.9C57.9999 24.9 57.5999 25 57.1999 25.2001C56.7999 25.4001 56.3999 25.6 56.0999 26C55.7999 26.3 55.5999 26.7001 55.3999 27.1C55.1999 27.5 55.0999 28 55.0999 28.4C55.0999 29 55.1999 29.6 55.4999 30.1C55.7999 30.6 56.1999 31.1 56.6999 31.4C57.2999 31.8 57.7999 31.9 58.4999 31.9Z" fill="white"/>
</svg>
