<svg width="33" height="30" viewBox="0 0 33 30" fill="none" xmlns="http://www.w3.org/2000/svg">
<path d="M16.3636 10.9091C17.1164 10.9091 17.7273 11.5214 17.7273 12.2727C17.7273 13.0241 17.1164 13.6364 16.3636 13.6364C15.6109 13.6364 15 13.0241 15 12.2727C15 11.5214 15.6109 10.9091 16.3636 10.9091ZM16.3636 8.18182C14.1041 8.18182 12.2727 10.0132 12.2727 12.2727C12.2727 14.5323 14.1041 16.3636 16.3636 16.3636C18.6232 16.3636 20.4545 14.5323 20.4545 12.2727C20.4545 10.0132 18.6232 8.18182 16.3636 8.18182ZM4.09091 13.6364C1.83136 13.6364 0 15.4677 0 17.7273C0 19.9868 1.83136 21.8182 4.09091 21.8182C6.35045 21.8182 8.18182 19.9868 8.18182 17.7273C8.18182 15.4677 6.35045 13.6364 4.09091 13.6364ZM28.6364 13.6364C26.3768 13.6364 24.5455 15.4677 24.5455 17.7273C24.5455 19.9868 26.3768 21.8182 28.6364 21.8182C30.8959 21.8182 32.7273 19.9868 32.7273 17.7273C32.7273 15.4677 30.8959 13.6364 28.6364 13.6364ZM16.3636 5.45455C16.8314 5.45455 17.2868 5.50227 17.7273 5.59227V1.36364C17.7273 0.610909 17.1177 0 16.3636 0C15.6095 0 15 0.610909 15 1.36364V5.59227C15.4405 5.50227 15.8959 5.45455 16.3636 5.45455ZM28.6364 10.9091C29.1041 10.9091 29.5595 10.9568 30 11.0468V1.36364C30 0.610909 29.3905 0 28.6364 0C27.8823 0 27.2727 0.610909 27.2727 1.36364V11.0468C27.7132 10.9568 28.1686 10.9091 28.6364 10.9091ZM28.6364 24.5455C28.1686 24.5455 27.7132 24.4977 27.2727 24.4077V28.6364C27.2727 29.3891 27.8823 30 28.6364 30C29.3905 30 30 29.3891 30 28.6364V24.4077C29.5595 24.4977 29.1041 24.5455 28.6364 24.5455ZM4.09091 10.9091C4.55864 10.9091 5.01409 10.9568 5.45455 11.0468V1.36364C5.45455 0.610909 4.845 0 4.09091 0C3.33682 0 2.72727 0.610909 2.72727 1.36364V11.0468C3.16773 10.9568 3.62318 10.9091 4.09091 10.9091ZM16.3636 19.0909C15.8959 19.0909 15.4405 19.0432 15 18.9532V28.6364C15 29.3891 15.6095 30 16.3636 30C17.1177 30 17.7273 29.3891 17.7273 28.6364V18.9532C17.2868 19.0432 16.8314 19.0909 16.3636 19.0909ZM4.09091 24.5455C3.62318 24.5455 3.16773 24.4977 2.72727 24.4077V28.6364C2.72727 29.3891 3.33682 30 4.09091 30C4.845 30 5.45455 29.3891 5.45455 28.6364V24.4077C5.01409 24.4977 4.55864 24.5455 4.09091 24.5455Z" fill="white"/>
</svg>
