<svg width="31" height="34" viewBox="0 0 31 34" fill="none" xmlns="http://www.w3.org/2000/svg">
<path d="M19.4546 17C19.4546 17.7527 18.8423 18.3636 18.0909 18.3636C17.3396 18.3636 16.7273 17.7527 16.7273 17C16.7273 16.2473 17.3396 15.6364 18.0909 15.6364C18.8423 15.6364 19.4546 16.2473 19.4546 17ZM22.1818 17C22.1818 14.7404 20.3505 12.9091 18.0909 12.9091C15.8314 12.9091 14 14.7404 14 17C14 19.2595 15.8314 21.0909 18.0909 21.0909C20.3505 21.0909 22.1818 19.2595 22.1818 17ZM16.7273 4.72726C16.7273 2.46772 14.8959 0.636352 12.6364 0.636352C10.3768 0.636352 8.54547 2.46772 8.54547 4.72726C8.54547 6.98681 10.3768 8.81817 12.6364 8.81817C14.8959 8.81817 16.7273 6.98681 16.7273 4.72726ZM16.7273 29.2727C16.7273 27.0132 14.8959 25.1818 12.6364 25.1818C10.3768 25.1818 8.54546 27.0132 8.54546 29.2727C8.54546 31.5323 10.3768 33.3636 12.6364 33.3636C14.8959 33.3636 16.7273 31.5323 16.7273 29.2727ZM24.9091 17C24.9091 17.4677 24.8614 17.9232 24.7714 18.3636L29 18.3636C29.7527 18.3636 30.3636 17.7541 30.3636 17C30.3636 16.2459 29.7527 15.6364 29 15.6364L24.7714 15.6364C24.8614 16.0768 24.9091 16.5323 24.9091 17ZM19.4546 29.2727C19.4546 29.7404 19.4068 30.1959 19.3168 30.6364L29 30.6364C29.7527 30.6364 30.3636 30.0268 30.3636 29.2727C30.3636 28.5186 29.7527 27.9091 29 27.9091L19.3168 27.9091C19.4068 28.3495 19.4546 28.805 19.4546 29.2727ZM5.81819 29.2727C5.81819 28.805 5.86592 28.3495 5.95592 27.9091L1.72728 27.9091C0.974555 27.9091 0.363646 28.5186 0.363646 29.2727C0.363646 30.0268 0.974555 30.6364 1.72728 30.6364L5.95592 30.6364C5.86592 30.1959 5.81819 29.7404 5.81819 29.2727ZM19.4546 4.72726C19.4546 5.19499 19.4068 5.65044 19.3168 6.0909L29 6.0909C29.7527 6.0909 30.3636 5.48135 30.3636 4.72726C30.3636 3.97317 29.7527 3.36363 29 3.36363L19.3168 3.36362C19.4068 3.80408 19.4546 4.25953 19.4546 4.72726ZM11.2727 17C11.2727 16.5323 11.3205 16.0768 11.4105 15.6364L1.72728 15.6364C0.974555 15.6364 0.363647 16.2459 0.363647 17C0.363647 17.7541 0.974555 18.3636 1.72728 18.3636L11.4105 18.3636C11.3205 17.9232 11.2727 17.4677 11.2727 17ZM5.81819 4.72726C5.81819 4.25953 5.86592 3.80408 5.95592 3.36362L1.72728 3.36362C0.974556 3.36362 0.363647 3.97317 0.363647 4.72726C0.363647 5.48135 0.974556 6.0909 1.72728 6.0909L5.95592 6.0909C5.86592 5.65044 5.81819 5.19499 5.81819 4.72726Z" fill="white"/>
</svg>
