<svg width="33" height="33" viewBox="0 0 33 33" fill="none" xmlns="http://www.w3.org/2000/svg">
<path d="M12.8123 26.125C10.5971 26.125 8.31738 25.1501 6.875 23.144L7.55013 23.1729C13.0213 23.1729 11.1416 16.9634 16.7571 16.9042L19.2871 19.0149C19.6721 23.6803 16.3226 26.125 12.8123 26.125ZM26.2157 13.3609C27.8465 10.8006 31.4848 3.98337 32.8763 1.33237C32.9629 1.1825 33 1.03263 33 0.88825C33 0.402875 32.571 0 32.098 0C31.9096 0 31.7144 0.064625 31.537 0.213125C29.2408 2.156 23.4272 7.11562 21.208 9.185C19.1029 11.154 19.0946 12.0546 18.4126 15.301L20.7226 17.226C23.7834 15.9679 24.6647 15.796 26.2157 13.3609ZM27.5 16.2566V30.25H2.75V11H16.6348C17.534 8.54012 19.0273 7.337 24.3403 2.75H0V33H30.25V11.9391C29.3026 13.6097 28.4969 15.0549 27.5 16.2566Z" fill="white"/>
</svg>
