<svg width="43" height="30" viewBox="0 0 43 30" fill="none" xmlns="http://www.w3.org/2000/svg">
<path d="M12.0482 18.0828H5.63123C5.76218 19.1304 6.0241 20.0471 6.41697 20.9638C7.85751 24.8926 10.6076 28.0356 15.0602 29.9999L17.6794 24.2378C14.5364 23.0592 12.8339 20.7019 12.0482 18.0828Z" fill="white"/>
<path d="M11.7862 15.0707H5.50024H0V17.6898H5.6312H11.9172H33.5253L27.8941 15.0707H11.7862Z" fill="white"/>
<path d="M37.0612 15.0707L35.8826 17.6898H42.0376V15.0707H37.0612Z" fill="white"/>
<path d="M36.5372 15.0707L36.7991 14.5469L39.6802 8.39184L35.8824 9.96333C32.7394 2.10585 23.9652 -1.95385 15.8458 0.927228C9.82174 3.15351 6.02395 8.52279 5.50012 14.5469H11.7861C12.179 11.2729 14.4053 8.12992 17.9411 6.82034C22.7866 4.98693 28.1559 7.47513 29.9893 12.1896L26.3224 13.6302L28.0249 14.4159L29.0726 14.9397L30.1202 15.4636L33.6561 17.0351L34.7038 17.5589L35.2276 17.8208L35.3585 17.5589L35.6205 17.0351L36.4062 15.4636L36.5372 15.0707Z" fill="white"/>
</svg>
