<svg width="40" height="30" viewBox="0 0 40 30" fill="none" xmlns="http://www.w3.org/2000/svg">
<path fill-rule="evenodd" clip-rule="evenodd" d="M19.9315 0C26.5853 0 32.0017 5.235 32.3538 11.82C36.6225 12.5917 39.863 16.33 39.863 20.8333C39.863 25.895 35.7721 30 30.7277 30H24.9144V26.6667H30.7277C33.9334 26.6667 36.5411 24.05 36.5411 20.8333C36.5411 15.885 32.0764 14.5567 29.1781 14.6333C29.7162 7.995 25.6668 3.33333 19.9315 3.33333C14.3523 3.33333 10.4076 7.60333 10.6849 14.6333C7.43944 14.445 3.32192 16.1717 3.32192 20.8333C3.32192 24.05 5.92962 26.6667 9.13527 26.6667H14.9486V30H9.13527C4.09094 30 0 25.895 0 20.8333C0 16.33 3.24053 12.5917 7.5092 11.82C7.86132 5.235 13.2777 0 19.9315 0ZM26.4385 21.4612H21.4556V29.7946H18.1337V21.4612H13.1508L19.7947 14.7946L26.4385 21.4612Z" fill="white"/>
</svg>
