<svg width="30" height="30" viewBox="0 0 30 30" fill="none" xmlns="http://www.w3.org/2000/svg">
<path d="M15.0007 0C23.2783 0 30 6.72168 30 15.0007C30 23.2783 23.2783 30 15.0007 30C6.72168 30 0 23.2783 0 15.0007C0 6.72168 6.72168 0 15.0007 0ZM15.0037 2.25056H15.0007C7.96399 2.25056 2.25056 7.96399 2.25056 15.0007C2.25056 22.0375 7.96399 27.7494 15.0007 27.7494H15.0037V2.25056ZM17.2543 27.5514C18.7502 27.2828 20.156 26.7547 21.4239 26.0135H17.2543V27.5514ZM25.6204 22.0525H17.2543V23.7629H24.2581C24.7592 23.2333 25.2153 22.6617 25.6204 22.0525ZM27.3713 18.0915H17.2543V19.802H26.8132C27.0383 19.2498 27.2258 18.6782 27.3713 18.0915ZM27.7209 14.1305H17.2543V15.841H27.7224C27.7404 15.5619 27.7494 15.2828 27.7494 15.0007C27.7494 14.7082 27.7404 14.4186 27.7209 14.1305ZM26.8012 10.1695H17.2543V11.88H27.3638C27.2168 11.2918 27.0278 10.7217 26.8012 10.1695ZM24.2311 6.20855H17.2543V7.91898H25.6009C25.1928 7.30983 24.7352 6.73818 24.2311 6.20855ZM17.2543 2.45011V3.95799H21.3743C20.12 3.23181 18.7307 2.71418 17.2543 2.45011Z" fill="white"/>
</svg>
