<svg width="30" height="30" viewBox="0 0 30 30" fill="none" xmlns="http://www.w3.org/2000/svg">
<path d="M15 11.25C17.0675 11.25 18.75 12.9325 18.75 15C18.75 17.0675 17.0675 18.75 15 18.75C12.9325 18.75 11.25 17.0675 11.25 15C11.25 12.9325 12.9325 11.25 15 11.25ZM15 8.75C11.5475 8.75 8.75 11.5475 8.75 15C8.75 18.4525 11.5475 21.25 15 21.25C18.4525 21.25 21.25 18.4525 21.25 15C21.25 11.5475 18.4525 8.75 15 8.75ZM9.77 8.00125L5.27875 3.50875L3.51 5.27625L8.00375 9.77C8.505 9.09875 9.09875 8.50375 9.77 8.00125ZM15 6.25C15.425 6.25 15.84 6.29125 16.25 6.35V0H13.75V6.35C14.16 6.29125 14.575 6.25 15 6.25ZM21.9975 9.76875L26.4913 5.275L24.7237 3.5075L20.23 8.00125C20.9013 8.50375 21.495 9.09875 21.9975 9.76875ZM6.25 15C6.25 14.575 6.29125 14.16 6.35 13.75H0V16.25H6.35C6.29125 15.84 6.25 15.425 6.25 15ZM20.2312 21.9975L24.7237 26.4888L26.4925 24.7213L22 20.23C21.4963 20.9 20.9012 21.495 20.2312 21.9975ZM8.00125 20.23L3.51 24.7213L5.2775 26.4888L9.76875 21.9975C9.09875 21.495 8.505 20.9013 8.00125 20.23ZM23.65 13.75C23.7087 14.16 23.75 14.575 23.75 15C23.75 15.425 23.7087 15.84 23.65 16.25H30V13.75H23.65ZM15 23.75C14.575 23.75 14.16 23.7087 13.75 23.65V30H16.25V23.65C15.84 23.7087 15.425 23.75 15 23.75Z" fill="white"/>
</svg>
