<svg width="30" height="17" viewBox="0 0 30 17" fill="none" xmlns="http://www.w3.org/2000/svg">
<path d="M15.7538 9.56063L23.5219 2.85L24.375 3.60938L18.5494 12.06C18.9506 13.2881 18.7181 14.685 17.7956 15.7181C16.4156 17.2612 14.0437 17.3944 12.5006 16.0144C10.9556 14.6344 10.8244 12.2644 12.2025 10.7194C13.1269 9.68812 14.4881 9.30188 15.7538 9.56063Z" fill="white"/>
<path d="M0 15H5.625C5.625 9.825 9.82687 5.625 15 5.625L15.8944 5.66625L21.1256 1.305C19.2544 0.466875 17.1806 0 15 0C6.72188 0 0 6.72188 0 15Z" fill="white"/>
<path d="M24.375 15H30C30 11.3269 28.6763 7.96125 26.4825 5.35125L23.2406 10.5281C23.9644 11.8575 24.375 13.38 24.375 15Z" fill="white"/>
</svg>
