<svg width="30" height="30" viewBox="0 0 30 30" fill="none" xmlns="http://www.w3.org/2000/svg">
<path fill-rule="evenodd" clip-rule="evenodd" d="M1.25 15.1937C4.07 20.1562 6.9375 25.0912 9.84875 30H3.125C2.08875 30 1.25 29.1562 1.25 28.125V15.1937ZM4.8125 16.2675C8.91 18.7075 20.895 25.84 21.2138 26.0238L14.7612 29.7487C14.4725 29.9137 14.1487 30 13.8225 30C13.1362 30 12.5262 29.6275 12.1987 29.0625L4.8125 16.2675ZM7.1875 0.25125C6.9 0.085 6.57625 0 6.25 0C5.595 0 4.9675 0.34625 4.62625 0.9375L0.25125 8.515C0.085 8.8025 0 9.12625 0 9.45125C0 10.11 0.3475 10.7362 0.9375 11.0763C4.6075 13.195 19.1625 21.9513 22.8325 24.0713C23.73 24.5875 24.8737 24.2812 25.3925 23.3838L29.7675 15.8063C29.9337 15.5188 30 15.1962 30 14.87C30 14.22 29.6788 13.5887 29.0825 13.245L7.1875 0.25125ZM7.5 5.18125C8.88 5.18125 10 6.30125 10 7.68125C10 9.06125 8.88 10.1813 7.5 10.1813C6.12 10.1813 5 9.06125 5 7.68125C5 6.30125 6.12 5.18125 7.5 5.18125Z" fill="white"/>
</svg>
