<svg width="999" height="48" viewBox="0 0 999 48" fill="none" xmlns="http://www.w3.org/2000/svg">
<path d="M322.774 30.0874L322.774 47.6888L325.627 47.6888L325.627 30.2037C324.686 30.1804 323.715 30.1339 322.774 30.0874Z" fill="white"/>
<path d="M328.339 30.2739L328.339 47.666L331.193 47.666L331.193 30.3902C330.251 30.3669 329.28 30.3204 328.339 30.2972L328.339 30.2739Z" fill="white"/>
<path d="M306.078 29.4354L306.078 47.6645L308.932 47.6645L308.932 29.5284C307.99 29.4819 307.02 29.4586 306.078 29.4121L306.078 29.4354Z" fill="white"/>
<path d="M317.209 29.8784L317.209 47.689L320.062 47.689L320.062 29.9947C319.121 29.9482 318.15 29.9249 317.209 29.8784Z" fill="white"/>
<path d="M311.644 29.6455L311.644 47.6654L314.498 47.6654L314.498 29.7618C313.556 29.7153 312.585 29.692 311.644 29.6455Z" fill="white"/>
<path d="M367.294 31.5054L367.294 47.6651L370.148 47.6651L370.148 31.5751C369.206 31.5519 368.236 31.5286 367.294 31.5054Z" fill="white"/>
<path d="M350.599 31.0176L350.599 47.6656L353.453 47.6656L353.453 31.1106C352.511 31.0873 351.541 31.0408 350.599 31.0176Z" fill="white"/>
<path d="M356.164 31.2036L356.164 47.6889L359.018 47.6889L359.018 31.2966C358.076 31.2734 357.106 31.2501 356.164 31.2036Z" fill="white"/>
<path d="M339.469 30.6689L339.469 47.6658L342.323 47.6658L342.323 30.762C341.381 30.7387 340.411 30.6922 339.469 30.6689Z" fill="white"/>
<path d="M345.034 30.8543L345.034 47.6651L347.888 47.6651L347.888 30.9241C346.946 30.9008 345.976 30.8776 345.034 30.8311L345.034 30.8543Z" fill="white"/>
<path d="M333.904 30.4829L333.904 47.689L336.758 47.689L336.758 30.5992C335.816 30.5759 334.846 30.5294 333.904 30.5062L333.904 30.4829Z" fill="white"/>
<path d="M361.729 31.3667L361.729 47.6892L364.583 47.6892L364.583 31.4597C363.641 31.4365 362.671 31.4132 361.729 31.39L361.729 31.3667Z" fill="white"/>
<path d="M300.513 29.2046L300.513 47.6662L303.367 47.6662L303.367 29.3208C302.397 29.2743 301.455 29.2511 300.513 29.2046Z" fill="white"/>
<path d="M272.688 27.9478L272.688 47.6882L275.542 47.6882L275.542 28.0873C274.6 28.0408 273.63 27.9943 272.688 27.9478Z" fill="white"/>
<path d="M267.123 27.6694L267.123 47.6657L269.977 47.6657L269.977 27.8089C269.035 27.7624 268.065 27.7159 267.123 27.6694Z" fill="white"/>
<path d="M250.428 26.7861L250.428 47.6659L253.282 47.6659L253.282 26.9489C252.311 26.9024 251.37 26.8326 250.428 26.7861Z" fill="white"/>
<path d="M495.291 33.4595L495.291 47.6661L498.144 47.6661L498.144 33.4595C497.203 33.4595 496.232 33.4595 495.291 33.4595Z" fill="white"/>
<path d="M261.558 27.3892L261.558 47.6877L264.412 47.6877L264.412 27.5287C263.441 27.4822 262.5 27.4357 261.558 27.3892Z" fill="white"/>
<path d="M289.383 28.7153L289.383 47.6653L292.237 47.6653L292.237 28.8548C291.295 28.8083 290.325 28.7618 289.383 28.7386L289.383 28.7153Z" fill="white"/>
<path d="M294.948 28.9712L294.948 47.6886L297.802 47.6886L297.802 29.1107C296.86 29.0642 295.89 29.0409 294.948 28.9944L294.948 28.9712Z" fill="white"/>
<path d="M278.253 28.2036L278.253 47.6651L281.107 47.6651L281.107 28.3431C280.165 28.2966 279.195 28.2501 278.253 28.2036Z" fill="white"/>
<path d="M283.818 28.4609L283.818 47.6666L286.672 47.6666L286.672 28.6004C285.73 28.5539 284.76 28.5074 283.818 28.4609Z" fill="white"/>
<path d="M244.863 26.4834L244.863 47.6655L247.717 47.6655L247.717 26.6462C246.775 26.5997 245.804 26.5532 244.863 26.4834Z" fill="white"/>
<path d="M450.77 33.1328L450.77 47.665L453.624 47.665L453.624 33.1561C452.682 33.1561 451.712 33.1561 450.77 33.1328Z" fill="white"/>
<path d="M456.335 33.2021L456.335 47.6878L459.189 47.6878L459.189 33.2487C458.247 33.2487 457.277 33.2487 456.335 33.2254L456.335 33.2021Z" fill="white"/>
<path d="M439.64 32.994L439.64 47.6656L442.494 47.6656L442.494 33.0172C441.552 33.0172 440.582 32.994 439.64 32.9707L439.64 32.994Z" fill="white"/>
<path d="M445.205 33.064L445.205 47.6659L448.059 47.6659L448.059 33.0872C447.117 33.0872 446.147 33.0872 445.205 33.064Z" fill="white"/>
<path d="M461.9 33.249L461.9 47.6649L464.754 47.6649L464.754 33.2723C463.812 33.2723 462.842 33.2723 461.9 33.249Z" fill="white"/>
<path d="M473.03 33.3418L473.03 47.6647L475.884 47.6647L475.884 33.3418C474.942 33.3418 473.972 33.3418 473.03 33.3418Z" fill="white"/>
<path d="M489.725 33.4355L489.725 47.6654L492.579 47.6654L492.579 33.4355C491.638 33.4355 490.667 33.4355 489.725 33.4355Z" fill="white"/>
<path d="M484.161 33.4126L484.161 47.6657L487.015 47.6657L487.015 33.4126C486.073 33.4126 485.102 33.4126 484.161 33.4126Z" fill="white"/>
<path d="M467.465 33.2959L467.465 47.6653L470.319 47.6653L470.319 33.3191C469.377 33.3192 468.407 33.3191 467.465 33.2959Z" fill="white"/>
<path d="M434.075 32.9248L434.075 47.6895L436.929 47.6895L436.929 32.9713C435.987 32.9713 435.017 32.9481 434.075 32.9248Z" fill="white"/>
<path d="M478.595 33.3887L478.595 47.6883L481.449 47.6883L481.449 33.4119C480.507 33.4119 479.537 33.4119 478.595 33.4119L478.595 33.3887Z" fill="white"/>
<path d="M395.12 32.2029L395.12 47.6652L397.973 47.6652L397.973 32.2494C397.032 32.2494 396.061 32.2029 395.12 32.1797L395.12 32.2029Z" fill="white"/>
<path d="M372.859 31.6685L372.859 47.6655L375.713 47.6655L375.713 31.7382C374.771 31.715 373.801 31.6917 372.859 31.6685Z" fill="white"/>
<path d="M389.554 32.0869L389.554 47.6886L392.408 47.6886L392.408 32.1567C391.466 32.1567 390.496 32.1102 389.554 32.0869Z" fill="white"/>
<path d="M378.424 31.8091L378.424 47.6666L381.278 47.6666L381.278 31.8788C380.336 31.8556 379.366 31.8323 378.424 31.8091Z" fill="white"/>
<path d="M383.989 31.9482L383.989 47.6662L386.843 47.6662L386.843 32.018C385.901 32.018 384.931 31.9715 383.989 31.9482Z" fill="white"/>
<path d="M400.684 32.3193L400.684 47.6653L403.538 47.6653L403.538 32.3658C402.597 32.3658 401.626 32.3193 400.684 32.3193Z" fill="white"/>
<path d="M406.25 32.436L406.25 47.6657L409.103 47.6657L409.103 32.4825C408.162 32.4825 407.191 32.436 406.25 32.436Z" fill="white"/>
<path d="M417.38 32.645L417.38 47.6655L420.234 47.6655L420.234 32.6915C419.292 32.6915 418.321 32.6683 417.38 32.645Z" fill="white"/>
<path d="M422.945 32.7388L422.945 47.6662L425.799 47.6662L425.799 32.7853C424.857 32.7853 423.887 32.762 422.945 32.7388Z" fill="white"/>
<path d="M428.51 32.8315L428.51 47.666L431.364 47.666L431.364 32.878C430.422 32.878 429.452 32.8548 428.51 32.8315Z" fill="white"/>
<path d="M411.815 32.5527L411.815 47.6894L414.668 47.6894L414.668 32.6225C413.727 32.6225 412.756 32.5992 411.815 32.576L411.815 32.5527Z" fill="white"/>
<path d="M255.993 27.0879L255.993 47.6654L258.847 47.6654L258.847 27.2507C257.905 27.2041 256.935 27.1576 255.993 27.1111L255.993 27.0879Z" fill="white"/>
<path d="M72.3457 11.7417L72.3457 47.6652L75.1996 47.6652L75.1996 12.0905C74.2578 11.9742 73.2875 11.858 72.3457 11.7417Z" fill="white"/>
<path d="M77.9109 12.4395L77.9109 47.6887L80.7648 47.6887L80.7648 12.7882C79.7944 12.672 78.8527 12.5557 77.9109 12.4395Z" fill="white"/>
<path d="M66.7808 11.022L66.7808 47.6663L69.6346 47.6663L69.6346 11.394C68.6929 11.2777 67.7225 11.1382 66.7808 11.022Z" fill="white"/>
<path d="M61.2157 10.2773L61.2157 47.6657L64.0696 47.6657L64.0696 10.6726C63.0993 10.5331 62.1575 10.4169 61.2157 10.2773Z" fill="white"/>
<path d="M55.6508 9.50977L55.6508 47.6654L58.5046 47.6654L58.5046 9.90504C57.5629 9.76553 56.5925 9.64927 55.6508 9.50977Z" fill="white"/>
<path d="M83.476 13.1138L83.476 47.6887L86.3298 47.6887L86.3298 13.4393C85.3881 13.323 84.4177 13.2068 83.476 13.1138Z" fill="white"/>
<path d="M89.0411 13.7646L89.0411 47.6653L91.895 47.6653L91.895 14.0902C90.9247 13.9739 89.9829 13.8809 89.0411 13.7646Z" fill="white"/>
<path d="M111.301 16.207L111.301 47.6895L114.155 47.6895L114.155 16.486C113.213 16.393 112.243 16.3 111.301 16.207Z" fill="white"/>
<path d="M105.736 15.6021L105.736 47.6658L108.59 47.6658L108.59 15.9276C107.62 15.8346 106.678 15.7183 105.736 15.6253L105.736 15.6021Z" fill="white"/>
<path d="M100.171 15.0205L100.171 47.6656L103.025 47.6656L103.025 15.3228C102.083 15.2298 101.113 15.1135 100.171 15.0205Z" fill="white"/>
<path d="M94.6061 14.3921L94.6061 47.6649L97.46 47.6649L97.46 14.7176C96.5182 14.6014 95.5479 14.5083 94.6061 14.3921Z" fill="white"/>
<path d="M38.9554 7.06817L38.9555 47.6652L41.8093 47.6652L41.8093 7.4867C40.8675 7.34719 39.8972 7.18443 38.9554 7.04492L38.9554 7.06817Z" fill="white"/>
<path d="M11.1302 2.25635L11.1303 47.6664L13.9841 47.6664L13.9841 2.79113C13.0423 2.60512 12.072 2.44236 11.1302 2.25635Z" fill="white"/>
<path d="M22.2601 4.30225L22.2601 47.6662L25.114 47.6662L25.114 4.81378C24.1437 4.65102 23.2019 4.48826 22.2601 4.30225Z" fill="white"/>
<path d="M16.6951 3.30127L16.6951 47.6651L19.549 47.6651L19.5489 3.8128C18.5786 3.65004 17.6368 3.46403 16.6951 3.30127Z" fill="white"/>
<path d="M0 0L8.3341e-06 47.6655L2.85389 47.6655L2.85388 0.604537C1.88356 0.395274 0.94178 0.209263 0 0Z" fill="white"/>
<path d="M239.298 26.1807L239.298 47.665L242.151 47.665L242.151 26.3434C241.181 26.2969 240.239 26.2272 239.298 26.1807Z" fill="white"/>
<path d="M116.866 16.7642L116.866 47.6654L119.72 47.6654L119.72 17.0664C118.75 16.9734 117.808 16.8804 116.866 16.7874L116.866 16.7642Z" fill="white"/>
<path d="M27.8253 5.25439L27.8253 47.6651L30.6792 47.6651L30.6792 5.74267C29.7089 5.57991 28.7671 5.41715 27.8253 5.27765L27.8253 5.25439Z" fill="white"/>
<path d="M50.0854 8.71924L50.0855 47.6654L52.9393 47.6654L52.9393 9.13776C51.9975 8.99826 51.0272 8.85875 50.0854 8.71924Z" fill="white"/>
<path d="M44.5205 7.90479L44.5205 47.6648L47.3744 47.6648L47.3744 8.32331C46.4041 8.1838 45.4623 8.04429 44.5205 7.90479Z" fill="white"/>
<path d="M33.3904 6.18555L33.3904 47.6662L36.2443 47.6662L36.2443 6.62732C35.3025 6.48782 34.3322 6.32506 33.3904 6.18555Z" fill="white"/>
<path d="M5.56494 1.16309L5.56495 47.666L8.41883 47.666L8.41882 1.72112C7.47704 1.53511 6.50672 1.3491 5.56494 1.16309Z" fill="white"/>
<path d="M205.907 24.1118L205.907 47.6655L208.761 47.6655L208.761 24.2978C207.82 24.2281 206.849 24.1816 205.907 24.1118Z" fill="white"/>
<path d="M200.342 23.7397L200.342 47.6888L203.196 47.6888L203.196 23.9258C202.254 23.856 201.284 23.7862 200.342 23.7397Z" fill="white"/>
<path d="M189.212 22.9487L189.212 47.665L192.066 47.665L192.066 23.158C191.096 23.0882 190.154 23.0185 189.212 22.9487Z" fill="white"/>
<path d="M183.647 22.5537L183.647 47.6885L186.501 47.6885L186.501 22.763C185.559 22.6932 184.589 22.6235 183.647 22.5537Z" fill="white"/>
<path d="M194.777 23.3442L194.777 47.6653L197.631 47.6653L197.631 23.5535C196.689 23.4837 195.719 23.414 194.777 23.3675L194.777 23.3442Z" fill="white"/>
<path d="M211.472 24.4834L211.472 47.6884L214.326 47.6884L214.326 24.6694C213.384 24.5997 212.414 24.5532 211.472 24.4834Z" fill="white"/>
<path d="M233.733 25.8564L233.733 47.6663L236.587 47.6663L236.587 26.0192C235.645 25.9727 234.674 25.9029 233.733 25.8564Z" fill="white"/>
<path d="M217.037 24.833L217.037 47.6659L219.891 47.6659L219.891 25.019C218.95 24.9493 217.979 24.9028 217.037 24.833Z" fill="white"/>
<path d="M228.167 25.5298L228.167 47.6884L231.021 47.6884L231.021 25.6925C230.08 25.646 229.109 25.5763 228.167 25.5298Z" fill="white"/>
<path d="M222.603 25.1812L222.603 47.6653L225.456 47.6653L225.456 25.3672C224.515 25.2974 223.544 25.2509 222.603 25.1812Z" fill="white"/>
<path d="M166.952 21.2515L166.952 47.6651L169.806 47.6651L169.806 21.484C168.835 21.4142 167.894 21.3212 166.952 21.2515Z" fill="white"/>
<path d="M150.257 19.8799L150.257 47.6654L153.111 47.6654L153.111 20.1124C152.169 20.0426 151.199 19.9496 150.257 19.8799Z" fill="white"/>
<path d="M139.127 18.9028L139.127 47.6881L141.98 47.6881L141.98 19.1586C141.039 19.0656 140.068 18.9958 139.127 18.9028Z" fill="white"/>
<path d="M144.692 19.3906L144.692 47.6644L147.546 47.6644L147.546 19.6464C146.604 19.5534 145.633 19.4836 144.692 19.3906Z" fill="white"/>
<path d="M133.561 18.3926L133.561 47.6894L136.415 47.6894L136.415 18.6483C135.473 18.5553 134.503 18.4623 133.561 18.3926Z" fill="white"/>
<path d="M127.996 17.8579L127.996 47.6663L130.85 47.6663L130.85 18.1369C129.908 18.0439 128.938 17.9509 127.996 17.8579Z" fill="white"/>
<path d="M122.431 17.3232L122.431 47.6664L125.285 47.6664L125.285 17.6023C124.343 17.5093 123.373 17.4162 122.431 17.3232Z" fill="white"/>
<path d="M178.082 22.1357L178.082 47.6891L180.936 47.6891L180.936 22.345C179.966 22.2752 179.024 22.2055 178.082 22.1357Z" fill="white"/>
<path d="M155.822 20.3442L155.822 47.6647L158.676 47.6647L158.676 20.5768C157.705 20.507 156.763 20.414 155.822 20.3442Z" fill="white"/>
<path d="M172.517 21.6938L172.517 47.6657L175.371 47.6657L175.371 21.9264C174.429 21.8566 173.459 21.7869 172.517 21.7171L172.517 21.6938Z" fill="white"/>
<path d="M161.387 20.8105L161.387 47.666L164.241 47.666L164.241 21.0431C163.299 20.9733 162.329 20.9036 161.387 20.8105Z" fill="white"/>
<path d="M795.804 25.7394L795.804 47.6656L798.658 47.6656L798.658 25.5767C797.716 25.6232 796.746 25.6929 795.804 25.7394Z" fill="white"/>
<path d="M840.324 22.8095L840.324 47.6654L843.178 47.6654L843.178 22.6235C842.237 22.6933 841.266 22.763 840.324 22.8328L840.324 22.8095Z" fill="white"/>
<path d="M834.759 23.2283L834.759 47.6888L837.613 47.6888L837.613 23.019C836.671 23.0888 835.73 23.1586 834.759 23.2283Z" fill="white"/>
<path d="M845.889 22.4134L845.889 47.6645L848.743 47.6645L848.743 22.2041C847.802 22.2739 846.86 22.3436 845.889 22.4134Z" fill="white"/>
<path d="M829.194 23.6001L829.194 47.6653L832.048 47.6653L832.048 23.4141C831.106 23.4838 830.136 23.5536 829.194 23.6001Z" fill="white"/>
<path d="M823.629 23.9954L823.629 47.6886L826.483 47.6886L826.483 23.7861C825.541 23.8559 824.599 23.9256 823.629 23.9721L823.629 23.9954Z" fill="white"/>
<path d="M862.585 21.1114L862.585 47.6646L865.439 47.6646L865.439 20.8789C864.497 20.9487 863.526 21.0417 862.585 21.1114Z" fill="white"/>
<path d="M873.715 20.205L873.715 47.6882L876.569 47.6882L876.569 19.9492C875.627 20.019 874.657 20.112 873.715 20.1817L873.715 20.205Z" fill="white"/>
<path d="M851.454 21.9957L851.454 47.6886L854.308 47.6886L854.308 21.7632C853.367 21.8329 852.396 21.9027 851.454 21.9724L851.454 21.9957Z" fill="white"/>
<path d="M868.15 20.6703L868.15 47.6885L871.004 47.6885L871.004 20.4146C870.062 20.4843 869.12 20.5773 868.15 20.6471L868.15 20.6703Z" fill="white"/>
<path d="M818.064 24.3672L818.064 47.6884L820.918 47.6884L820.918 24.1812C819.976 24.2509 819.006 24.2974 818.064 24.3672Z" fill="white"/>
<path d="M857.019 21.5538L857.019 47.6652L859.873 47.6652L859.873 21.3213C858.932 21.391 857.99 21.484 857.019 21.5538Z" fill="white"/>
<path d="M762.414 27.5755L762.414 47.6648L765.268 47.6648L765.268 27.436C764.326 27.4825 763.384 27.529 762.414 27.5755Z" fill="white"/>
<path d="M767.979 27.297L767.979 47.6886L770.832 47.6886L770.832 27.1343C769.891 27.1808 768.92 27.2273 767.979 27.2738L767.979 27.297Z" fill="white"/>
<path d="M773.544 26.994L773.544 47.6646L776.397 47.6645L776.397 26.8545C775.456 26.901 774.514 26.9707 773.544 27.0173L773.544 26.994Z" fill="white"/>
<path d="M751.283 28.1341L751.283 47.6886L754.137 47.6886L754.137 27.9946C753.195 28.0411 752.225 28.0876 751.283 28.1341Z" fill="white"/>
<path d="M756.849 27.8553L756.849 47.6656L759.702 47.6656L759.702 27.7158C758.761 27.7623 757.79 27.8088 756.849 27.8553Z" fill="white"/>
<path d="M812.499 24.7158L812.499 47.665L815.353 47.665L815.353 24.5298C814.411 24.5995 813.441 24.646 812.499 24.7158Z" fill="white"/>
<path d="M779.109 26.6927L779.109 47.6655L781.962 47.6655L781.962 26.5532C781.021 26.5997 780.05 26.6695 779.109 26.716L779.109 26.6927Z" fill="white"/>
<path d="M784.674 26.3903L784.674 47.6654L787.528 47.6654L787.528 26.2275C786.586 26.274 785.616 26.3438 784.674 26.3903Z" fill="white"/>
<path d="M806.934 25.0651L806.934 47.6655L809.788 47.6655L809.788 24.9023C808.846 24.9721 807.876 25.0186 806.934 25.0884L806.934 25.0651Z" fill="white"/>
<path d="M801.369 25.414L801.369 47.6657L804.223 47.6657L804.223 25.228C803.281 25.2978 802.311 25.3443 801.369 25.414Z" fill="white"/>
<path d="M790.239 26.0646L790.239 47.6652L793.093 47.6652L793.093 25.9019C792.151 25.9484 791.181 26.0181 790.239 26.0646Z" fill="white"/>
<path d="M879.28 19.7172L879.28 47.6654L882.134 47.6654L882.134 19.4614C881.192 19.5544 880.25 19.6242 879.28 19.7172Z" fill="white"/>
<path d="M968.321 10.0442L968.321 47.6651L971.175 47.6651L971.175 9.64893C970.233 9.78843 969.263 9.90469 968.321 10.0442Z" fill="white"/>
<path d="M973.886 9.25367L973.886 47.6651L976.74 47.6651L976.74 8.8584C975.798 8.99791 974.856 9.13742 973.886 9.27692L973.886 9.25367Z" fill="white"/>
<path d="M962.756 10.7888L962.756 47.6656L965.61 47.6656L965.61 10.3936C964.668 10.5331 963.726 10.6493 962.756 10.7888Z" fill="white"/>
<path d="M957.191 11.5097L957.191 47.6657L960.045 47.6657L960.045 11.1377C959.103 11.254 958.161 11.3935 957.191 11.5097Z" fill="white"/>
<path d="M951.626 12.2067L951.626 47.6652L954.479 47.6652L954.479 11.8579C953.538 11.9742 952.567 12.0904 951.626 12.2067Z" fill="white"/>
<path d="M884.845 19.2294L884.845 47.6659L887.699 47.6659L887.699 18.9736C886.757 19.0666 885.786 19.1364 884.845 19.2294Z" fill="white"/>
<path d="M979.451 8.46394L979.451 47.6659L982.305 47.6659L982.305 8.04541C981.363 8.18492 980.421 8.32443 979.451 8.46394Z" fill="white"/>
<path d="M990.581 6.76648L990.581 47.6658L993.435 47.6658L993.435 6.32471C992.493 6.48747 991.523 6.62698 990.581 6.76648Z" fill="white"/>
<path d="M996.146 5.883L996.146 47.6659L999 47.6659L999 5.41797C998.058 5.58073 997.116 5.74349 996.146 5.883Z" fill="white"/>
<path d="M985.016 7.62605L985.016 47.6651L987.87 47.6651L987.87 7.20752C986.928 7.34703 985.958 7.48654 985.016 7.6493L985.016 7.62605Z" fill="white"/>
<path d="M946.061 12.9039L946.061 47.6881L948.914 47.6881L948.914 12.5552C947.973 12.6714 947.031 12.7877 946.061 12.9039Z" fill="white"/>
<path d="M907.105 17.136L907.105 47.6651L909.959 47.6651L909.959 16.8569C909.017 16.9499 908.075 17.0429 907.105 17.136Z" fill="white"/>
<path d="M901.54 17.6945L901.54 47.6889L904.394 47.6889L904.394 17.4155C903.452 17.5085 902.482 17.6015 901.54 17.6945Z" fill="white"/>
<path d="M912.67 16.5774L912.67 47.6646L915.524 47.6646L915.524 16.2983C914.582 16.3913 913.612 16.4844 912.67 16.5774Z" fill="white"/>
<path d="M890.41 18.74L890.41 47.688L893.264 47.688L893.264 18.4609C892.322 18.5539 891.38 18.6469 890.41 18.7167L890.41 18.74Z" fill="white"/>
<path d="M895.975 18.206L895.975 47.6656L898.829 47.6656L898.829 17.9502C897.887 18.0432 896.917 18.1362 895.975 18.2292L895.975 18.206Z" fill="white"/>
<path d="M500.856 33.4824L500.856 47.6658L503.709 47.6658L503.709 33.4824C502.768 33.4824 501.797 33.4824 500.856 33.4824Z" fill="white"/>
<path d="M934.93 14.1829L934.93 47.665L937.784 47.665L937.784 13.8574C936.843 13.9737 935.872 14.0667 934.93 14.1829Z" fill="white"/>
<path d="M918.235 16.0191L918.235 47.6876L921.089 47.6876L921.089 15.7168C920.147 15.8098 919.205 15.9261 918.235 16.0191Z" fill="white"/>
<path d="M940.496 13.5563L940.496 47.6894L943.349 47.6894L943.349 13.2075C942.408 13.3238 941.437 13.44 940.496 13.533L940.496 13.5563Z" fill="white"/>
<path d="M923.8 15.416L923.8 47.6658L926.654 47.6658L926.654 15.1138C925.712 15.2068 924.742 15.323 923.8 15.416Z" fill="white"/>
<path d="M929.365 14.8115L929.365 47.6659L932.219 47.6659L932.219 14.5093C931.277 14.6255 930.336 14.7185 929.365 14.8348L929.365 14.8115Z" fill="white"/>
<path d="M578.766 33.1105L578.766 47.6659L581.62 47.6659L581.62 33.064C580.678 33.064 579.708 33.064 578.766 33.0872L578.766 33.1105Z" fill="white"/>
<path d="M584.332 33.0402L584.332 47.6653L587.185 47.6653L587.185 32.9937C586.244 32.9937 585.273 33.0169 584.332 33.0402Z" fill="white"/>
<path d="M567.636 33.2254L567.636 47.6646L570.49 47.6646L570.49 33.2021C569.548 33.2021 568.578 33.2021 567.636 33.2254Z" fill="white"/>
<path d="M589.897 32.9713L589.897 47.6662L592.751 47.6662L592.751 32.9248C591.809 32.9248 590.838 32.9481 589.897 32.9713Z" fill="white"/>
<path d="M573.201 33.1793L573.201 47.665L576.055 47.665L576.055 33.1328C575.113 33.1328 574.143 33.1561 573.201 33.1561L573.201 33.1793Z" fill="white"/>
<path d="M606.592 32.7148L606.592 47.6655L609.446 47.6655L609.446 32.645C608.504 32.645 607.534 32.6683 606.592 32.6915L606.592 32.7148Z" fill="white"/>
<path d="M617.722 32.5058L617.722 47.6657L620.576 47.6657L620.576 32.436C619.634 32.436 618.664 32.4825 617.722 32.4825L617.722 32.5058Z" fill="white"/>
<path d="M612.157 32.6207L612.157 47.6877L615.011 47.6877L615.011 32.5742C614.069 32.5742 613.099 32.5975 612.157 32.6207Z" fill="white"/>
<path d="M601.027 32.8068L601.027 47.6644L603.881 47.6644L603.881 32.7603C602.939 32.7603 601.969 32.7835 601.027 32.8068Z" fill="white"/>
<path d="M595.462 32.878L595.462 47.666L598.316 47.666L598.316 32.8315C597.374 32.8315 596.404 32.8548 595.462 32.878Z" fill="white"/>
<path d="M562.071 33.2723L562.071 47.6649L564.925 47.6649L564.925 33.249C563.983 33.249 563.013 33.249 562.071 33.2723Z" fill="white"/>
<path d="M506.421 33.4824L506.421 47.6658L509.274 47.6658L509.274 33.4824C508.333 33.4824 507.362 33.4824 506.421 33.4824Z" fill="white"/>
<path d="M556.506 33.3192L556.506 47.6653L559.36 47.6653L559.36 33.2959C558.418 33.2959 557.448 33.2959 556.506 33.2959L556.506 33.3192Z" fill="white"/>
<path d="M517.551 33.4824L517.551 47.6658L520.405 47.6658L520.405 33.4824C519.463 33.4824 518.492 33.4824 517.551 33.4824Z" fill="white"/>
<path d="M513.869 33.5049C513.241 33.5049 512.614 33.5049 511.986 33.5049L511.986 47.6883L514.84 47.6883L514.84 33.5049C514.526 33.5049 514.183 33.5049 513.869 33.5049Z" fill="white"/>
<path d="M528.681 33.4824L528.681 47.6891L531.535 47.6891L531.535 33.4824C530.593 33.4824 529.623 33.4824 528.681 33.4824Z" fill="white"/>
<path d="M623.287 32.3903L623.287 47.6665L626.141 47.6665L626.141 32.3437C625.199 32.3437 624.229 32.3903 623.287 32.3903Z" fill="white"/>
<path d="M523.116 33.4824L523.116 47.6658L525.97 47.6658L525.97 33.4824C525.028 33.4824 524.058 33.4824 523.116 33.4824Z" fill="white"/>
<path d="M550.941 33.365L550.941 47.6647L553.795 47.6647L553.795 33.3418C552.853 33.3418 551.883 33.3418 550.941 33.3418L550.941 33.365Z" fill="white"/>
<path d="M745.718 28.39L745.718 47.6887L748.572 47.6887L748.572 28.2505C747.63 28.297 746.66 28.3435 745.718 28.39Z" fill="white"/>
<path d="M539.811 33.4358L539.811 47.6657L542.665 47.6657L542.665 33.4126C541.723 33.4126 540.753 33.4126 539.811 33.4126L539.811 33.4358Z" fill="white"/>
<path d="M534.246 33.4595L534.246 47.6894L537.1 47.6894L537.1 33.4595C536.158 33.4595 535.188 33.4595 534.246 33.4595Z" fill="white"/>
<path d="M545.376 33.4126L545.376 47.689L548.23 47.689L548.23 33.4126C547.288 33.4126 546.318 33.4126 545.376 33.4126Z" fill="white"/>
<path d="M706.763 30.0178L706.763 47.6889L709.617 47.6889L709.617 29.9248C708.675 29.9713 707.705 29.9946 706.763 30.0411L706.763 30.0178Z" fill="white"/>
<path d="M690.068 30.5994L690.068 47.6659L692.922 47.6659L692.922 30.5063C691.98 30.5296 691.009 30.5761 690.068 30.5994Z" fill="white"/>
<path d="M701.198 30.2273L701.198 47.6891L704.052 47.6891L704.052 30.1343C703.11 30.1808 702.14 30.204 701.198 30.2505L701.198 30.2273Z" fill="white"/>
<path d="M717.893 29.5752L717.893 47.6649L720.747 47.6649L720.747 29.459C719.805 29.5055 718.835 29.5287 717.893 29.5752Z" fill="white"/>
<path d="M695.633 30.4133L695.633 47.6659L698.487 47.6659L698.487 30.3203C697.545 30.3436 696.575 30.3901 695.633 30.4133Z" fill="white"/>
<path d="M712.328 29.8078L712.328 47.6882L715.182 47.6882L715.182 29.7148C714.24 29.7613 713.27 29.7846 712.328 29.8311L712.328 29.8078Z" fill="white"/>
<path d="M740.153 28.6449L740.153 47.6878L743.007 47.6878L743.007 28.5054C742.065 28.5519 741.095 28.5984 740.153 28.6449Z" fill="white"/>
<path d="M734.588 28.8785L734.588 47.6656L737.442 47.6656L737.442 28.7622C736.5 28.8087 735.53 28.8552 734.588 28.8785Z" fill="white"/>
<path d="M729.023 29.1346L729.023 47.6893L731.877 47.6893L731.877 28.9951C730.935 29.0416 729.965 29.0649 729.023 29.1114L729.023 29.1346Z" fill="white"/>
<path d="M723.458 29.3663L723.458 47.6884L726.312 47.6884L726.312 29.25C725.37 29.2965 724.428 29.343 723.458 29.3663Z" fill="white"/>
<path d="M651.112 31.7607L651.112 47.6647L653.966 47.6647L653.966 31.6909C653.024 31.7142 652.054 31.7374 651.112 31.7607Z" fill="white"/>
<path d="M656.677 31.6218L656.677 47.6653L659.531 47.6653L659.531 31.5288C658.589 31.5521 657.648 31.5753 656.677 31.5986L656.677 31.6218Z" fill="white"/>
<path d="M628.852 32.2965L628.852 47.689L631.706 47.689L631.706 32.25C630.764 32.25 629.794 32.2965 628.852 32.3198L628.852 32.2965Z" fill="white"/>
<path d="M645.547 31.9003L645.547 47.6648L648.401 47.6648L648.401 31.8306C647.459 31.8538 646.489 31.8771 645.547 31.9003Z" fill="white"/>
<path d="M634.417 32.1562L634.417 47.6649L637.271 47.6649L637.271 32.0864C636.329 32.0864 635.359 32.1329 634.417 32.1562Z" fill="white"/>
<path d="M684.503 30.7859L684.503 47.6664L687.356 47.6664L687.356 30.6929C686.415 30.7161 685.444 30.7626 684.503 30.7859Z" fill="white"/>
<path d="M639.982 32.0409L639.982 47.6659L642.836 47.6659L642.836 31.9712C641.894 31.9712 640.924 32.0177 639.982 32.0409Z" fill="white"/>
<path d="M678.938 30.9709L678.938 47.6655L681.791 47.6655L681.791 30.8779C680.85 30.9012 679.879 30.9477 678.938 30.9709Z" fill="white"/>
<path d="M662.242 31.4597L662.242 47.666L665.096 47.666L665.096 31.3667C664.154 31.39 663.184 31.4132 662.242 31.4365L662.242 31.4597Z" fill="white"/>
<path d="M673.373 31.134L673.373 47.6658L676.226 47.6658L676.226 31.041C675.285 31.0643 674.314 31.1108 673.373 31.134Z" fill="white"/>
<path d="M667.807 31.2973L667.807 47.6663L670.661 47.6663L670.661 31.2275C669.719 31.2508 668.749 31.274 667.807 31.3205L667.807 31.2973Z" fill="white"/>
</svg>
