<svg width="76" height="75" viewBox="0 0 76 75" fill="none" xmlns="http://www.w3.org/2000/svg">
<path fill-rule="evenodd" clip-rule="evenodd" d="M13.8608 3.36082C8.33797 3.36082 3.86081 7.83798 3.86081 13.3608V22.3376C3.86081 23.1276 3.2204 23.768 2.4304 23.768C1.64041 23.768 0.999992 23.1276 0.999992 22.3376V10.5C0.999992 4.97715 5.47714 0.5 11 0.5H40.3015C45.8243 0.5 50.3015 4.97715 50.3015 10.5V22.3376C50.3015 23.1276 49.6611 23.768 48.8711 23.768C48.0811 23.768 47.4407 23.1276 47.4407 22.3376V13.3608C47.4407 7.83797 42.9635 3.36082 37.4407 3.36082H13.8608ZM75.0893 36.5803C75.0893 30.229 69.9406 25.0803 63.5893 25.0803H12.4502C6.09892 25.0803 0.950195 30.229 0.950195 36.5803V63.021C0.950195 69.3723 6.09892 74.521 12.4502 74.521H63.5893C69.9406 74.521 75.0893 69.3723 75.0893 63.021V36.5803ZM63.5893 28.0803C68.2837 28.0803 72.0893 31.8859 72.0893 36.5803V63.021C72.0893 67.7154 68.2837 71.521 63.5893 71.521H12.4502C7.75577 71.521 3.9502 67.7154 3.9502 63.021V36.5803C3.9502 31.8859 7.75578 28.0803 12.4502 28.0803H63.5893ZM40.0117 48.0869L53.7191 43.7939L55.5463 43.2217L53.6892 42.7554L13.2525 32.6017L12.2525 32.3506V33.3816V66.3107V67.348L13.2525 67.0725L58.0771 54.7256L60.0282 54.1882L58.0664 53.6913L40.0405 49.1258L38.1906 48.6573L40.0117 48.0869ZM56.1154 54.2287L37.9451 49.6267L34.5196 48.7591L37.8917 47.703L51.8621 43.3276L13.2525 33.6327V66.0353L56.1154 54.2287ZM66.6083 36.7372C66.6083 39.1598 64.6443 41.1238 62.2217 41.1238C59.799 41.1238 57.8351 39.1598 57.8351 36.7372C57.8351 34.3145 59.799 32.3506 62.2217 32.3506C64.6443 32.3506 66.6083 34.3145 66.6083 36.7372ZM32.2783 23.7679L29.9896 15.5669L27.9871 23.7679H32.2783ZM19.0232 20.0488L20.2628 23.7679H18.1649L19.0232 20.0488ZM12.5386 17.7602C14.9612 17.7602 16.9252 15.7963 16.9252 13.3737C16.9252 10.951 14.9612 8.98706 12.5386 8.98706C10.1159 8.98706 8.15197 10.951 8.15197 13.3737C8.15197 15.7963 10.1159 17.7602 12.5386 17.7602ZM64.2243 19.2862L66.8944 16.6161C66.8944 16.6161 60.1238 9.65473 52.1135 9.84545C61.9356 3.64701 72.3299 11.1805 72.3299 11.1805L75 8.5104V19.2862H64.2243Z" fill="white"/>
</svg>
