<svg width="60" height="79" viewBox="0 0 60 79" fill="none" xmlns="http://www.w3.org/2000/svg">
<path fill-rule="evenodd" clip-rule="evenodd" d="M59.8 12C59.8 5.64873 54.6513 0.5 48.3 0.5H12C5.64872 0.5 0.499992 5.64872 0.499992 12V67C0.499992 73.3513 5.64871 78.5 12 78.5H48.3C54.6513 78.5 59.8 73.3513 59.8 67V12ZM48.3 3.5C52.9944 3.5 56.8 7.30558 56.8 12V20.6087H47.4913V3.5H48.3ZM47.0583 3.5V20.6087H14.3915V3.5H47.0583ZM13.9585 3.5V20.6087H3.49999V12C3.49999 7.30558 7.30557 3.5 12 3.5H13.9585ZM3.49999 21.0417V58.1087H13.9585V21.0417H3.49999ZM3.49999 58.5417V67C3.49999 71.6944 7.30556 75.5 12 75.5H13.9585V58.5417H3.49999ZM14.3915 75.5H47.0583V58.5417H14.3915V75.5ZM47.4913 75.5H48.3C52.9944 75.5 56.8 71.6944 56.8 67V58.5417H47.4913V75.5ZM56.8 58.1087V21.0417H47.4913V58.1087H56.8ZM14.3915 21.0417H47.0583V58.1087H14.3915V21.0417ZM15.2748 42.5252V44.0252H22.3748V47.1252H24.1748V44.0252H26.2748V42.4252H24.1748V31.8252H22.3748V31.9252H21.9748L15.2748 42.5252ZM22.3748 34.3252L17.2748 42.3252V42.4252H22.3748V34.3252ZM30.3748 37.5252C29.9748 37.5252 29.6748 37.4252 29.4748 37.1252C29.1748 36.8252 29.0748 36.5252 29.0748 36.2252C29.0748 35.8252 29.1748 35.5252 29.4748 35.3252C29.7748 35.0252 30.0748 34.9252 30.3748 34.9252C30.6748 34.9252 31.0748 35.0252 31.2748 35.3252C31.5748 35.6252 31.6748 35.9252 31.6748 36.2252C31.6748 36.4252 31.5748 36.7252 31.4748 36.9252C31.3748 37.1252 31.1748 37.3252 30.9748 37.4252C30.7748 37.5252 30.6748 37.5252 30.3748 37.5252ZM30.3748 45.2252C29.9748 45.2252 29.6748 45.1252 29.4748 44.8252C29.1748 44.5252 29.0748 44.2252 29.0748 43.9252C29.0748 43.6252 29.1748 43.2252 29.4748 43.0252C29.7748 42.7252 30.0748 42.6252 30.3748 42.6252C30.6748 42.6252 31.0748 42.7252 31.2748 43.0252C31.5748 43.3252 31.6748 43.6252 31.6748 43.9252C31.6748 44.1252 31.5748 44.4252 31.4748 44.6252C31.3748 44.8252 31.1748 45.0252 30.9748 45.1252C30.9382 45.1252 30.8882 45.1386 30.8248 45.1556C30.715 45.185 30.565 45.2252 30.3748 45.2252ZM37.3748 46.8252C38.0748 47.1252 38.9748 47.3252 39.9748 47.3252C40.9748 47.3252 41.9748 47.3252 42.6748 46.9252C43.3748 46.5252 43.9748 46.0252 44.4748 45.3252C44.9748 44.7252 45.1748 43.9252 45.1748 43.1252C45.1748 42.2252 44.8748 41.4252 44.3748 40.7252C43.7748 40.1252 43.0748 39.7252 42.0748 39.5252V39.4252C42.7748 39.1252 43.4748 38.7252 43.8748 38.1252C44.3748 37.5252 44.5748 36.8252 44.5748 35.9252C44.5748 35.2252 44.4748 34.5252 44.0748 33.9252C43.6748 33.3252 43.1748 32.8252 42.4748 32.4252C41.8748 32.0252 40.9748 31.8252 40.0748 31.8252C39.1748 31.8252 38.3748 32.0252 37.6748 32.3252C36.8748 32.6252 36.3748 33.1252 35.8748 33.7252C35.4748 34.3252 35.1748 35.0252 35.1748 35.8252H36.9748C36.9748 35.3252 37.1748 34.8252 37.4748 34.5252C37.7748 34.2252 38.0748 33.9252 38.5748 33.7252C39.0748 33.5252 39.5748 33.4252 40.0748 33.4252C40.6748 33.4252 41.1748 33.5252 41.5748 33.7252C42.0748 33.9252 42.3748 34.3252 42.5748 34.6252C42.7748 34.9252 42.8748 35.4252 42.8748 35.9252C42.8748 36.4252 42.7748 36.9252 42.4748 37.3252C42.1748 37.7252 41.8748 38.0252 41.3748 38.2252C40.8748 38.4252 40.3748 38.5252 39.7748 38.5252H38.5748V40.1252H39.7748C40.5748 40.1252 41.2748 40.3252 41.7748 40.5252C42.2748 40.7252 42.6748 41.1252 42.9748 41.5252C43.2748 41.9252 43.3748 42.4252 43.3748 43.0252C43.3748 43.5252 43.2748 44.0252 42.9748 44.4252C42.6748 44.9252 42.2748 45.2252 41.7748 45.4252C41.2748 45.6252 40.7748 45.7252 40.0748 45.7252C39.4748 45.7252 38.9748 45.6252 38.4748 45.4252C37.9748 45.2252 37.5748 45.0252 37.2748 44.6252C36.9748 44.2252 36.7748 43.8252 36.7748 43.3252H34.8748C34.8748 44.1252 35.0748 44.8252 35.5748 45.4252C35.9748 46.0252 36.6748 46.5252 37.3748 46.8252Z" fill="white"/>
</svg>
