<svg width="76" height="75" viewBox="0 0 76 75" fill="none" xmlns="http://www.w3.org/2000/svg">
<path fill-rule="evenodd" clip-rule="evenodd" d="M62.1392 3.36082C67.662 3.36082 72.1392 7.83798 72.1392 13.3608V22.3376C72.1392 23.1276 72.7796 23.768 73.5696 23.768C74.3596 23.768 75 23.1276 75 22.3376V10.5C75 4.97715 70.5229 0.5 65 0.5H35.6985C30.1757 0.5 25.6985 4.97715 25.6985 10.5V22.3376C25.6985 23.1276 26.3389 23.768 27.1289 23.768C27.9189 23.768 28.5593 23.1276 28.5593 22.3376V13.3608C28.5593 7.83797 33.0365 3.36082 38.5593 3.36082H62.1392ZM0.910706 36.5803C0.910706 30.229 6.05943 25.0803 12.4107 25.0803H63.5498C69.9011 25.0803 75.0498 30.229 75.0498 36.5803V63.021C75.0498 69.3723 69.9011 74.521 63.5498 74.521H12.4107C6.05943 74.521 0.910706 69.3723 0.910706 63.021V36.5803ZM12.4107 28.0803C7.71628 28.0803 3.91071 31.8859 3.91071 36.5803V63.021C3.91071 67.7154 7.71629 71.521 12.4107 71.521H63.5498C68.2442 71.521 72.0498 67.7154 72.0498 63.021V36.5803C72.0498 31.8859 68.2442 28.0803 63.5498 28.0803H12.4107ZM35.9882 48.0869L22.2808 43.7939L20.4537 43.2217L22.3107 42.7554L62.7474 32.6017L63.7474 32.3506V33.3816V66.3107V67.348L62.7474 67.0725L17.9228 54.7256L15.9717 54.1882L17.9335 53.6913L35.9594 49.1258L37.8093 48.6573L35.9882 48.0869ZM19.8846 54.2287L38.0548 49.6267L41.4803 48.7591L38.1082 47.703L24.1379 43.3276L62.7474 33.6327V66.0353L19.8846 54.2287ZM9.39173 36.7372C9.39173 39.1598 11.3557 41.1238 13.7783 41.1238C16.201 41.1238 18.1649 39.1598 18.1649 36.7372C18.1649 34.3145 16.201 32.3506 13.7783 32.3506C11.3557 32.3506 9.39173 34.3145 9.39173 36.7372ZM43.7217 23.7679L46.0104 15.5669L48.0129 23.7679H43.7217ZM56.9768 20.0488L55.7372 23.7679H57.8351L56.9768 20.0488ZM63.4614 17.7602C61.0388 17.7602 59.0748 15.7963 59.0748 13.3737C59.0748 10.951 61.0388 8.98706 63.4614 8.98706C65.8841 8.98706 67.848 10.951 67.848 13.3737C67.848 15.7963 65.8841 17.7602 63.4614 17.7602ZM11.7757 19.2862L9.10563 16.6161C9.10563 16.6161 15.8762 9.65473 23.8865 9.84545C14.0644 3.64701 3.67006 11.1805 3.67006 11.1805L0.999969 8.5104V19.2862H11.7757Z" fill="white"/>
</svg>
