<svg width="75" height="75" viewBox="0 0 75 75" fill="none" xmlns="http://www.w3.org/2000/svg">
<path fill-rule="evenodd" clip-rule="evenodd" d="M18.55 19.05V56.05H3V19.05H18.55ZM0 56.05V56.55V65C0 70.5229 4.47715 75 10 75H18.55H19.05H56.05H56.55H65C70.5229 75 75 70.5229 75 65V56.55V56.05V19.05V18.55V10C75 4.47715 70.5229 0 65 0H56.55H56.05H19.05H18.55H10C4.47715 0 0 4.47715 0 10V18.55V19.05V56.05ZM10 72H18.55V56.55H3V65C3 68.866 6.13401 72 10 72ZM56.05 72H19.05V56.55H56.05V72ZM65 72H56.55V56.55H72V65C72 68.866 68.866 72 65 72ZM72 19.05V56.05H56.55V19.05H72ZM72 10V18.55H56.55V3H65C68.866 3 72 6.13401 72 10ZM19.05 3H56.05V18.55H19.05V3ZM10 3H18.55V18.55H3V10C3 6.13401 6.13401 3 10 3ZM19.05 19.05V56.05H56.05V19.05H19.05ZM31.7999 45.1999V29.8999H30L26.2 32.3999V34.2999L29.9 31.7999H30V45.1999H31.7999ZM37.5 35.4999C37.0999 35.4999 36.7999 35.3999 36.5999 35.0999C36.2999 34.7999 36.2 34.4999 36.2 34.1999C36.2 33.7999 36.2999 33.4999 36.5999 33.2999C36.8999 33.0999 37.2 32.8999 37.5 32.8999C37.7999 32.8999 38.2 32.9999 38.4 33.2999C38.7 33.5999 38.7999 33.8999 38.7999 34.1999C38.7999 34.3999 38.6999 34.6999 38.5999 34.8999C38.5 35.0999 38.2999 35.2999 38.0999 35.3999C38.0585 35.3999 37.9828 35.4171 37.8941 35.4371L37.8941 35.4372C37.7686 35.4656 37.6171 35.4999 37.5 35.4999ZM37.5 43.1999C37.0999 43.1999 36.7999 43.0999 36.5999 42.7999C36.2999 42.4999 36.2 42.1999 36.2 41.8999C36.2 41.5999 36.2999 41.1999 36.5999 40.9999C36.8999 40.6999 37.2 40.5999 37.5 40.5999C37.7999 40.5999 38.2 40.6999 38.4 40.9999C38.7 41.2999 38.7999 41.5999 38.7999 41.8999C38.7999 42.0999 38.6999 42.3999 38.5999 42.5999C38.5 42.7999 38.2999 42.9999 38.0999 43.0999C38.0585 43.0999 37.9828 43.1171 37.8941 43.1372C37.7686 43.1656 37.6171 43.1999 37.5 43.1999ZM47.2999 45.1999V29.8999H45.5L41.7 32.3999V34.2999L45.4 31.7999H45.5V45.1999H47.2999Z" fill="white"/>
</svg>
