<svg width="81" height="75" viewBox="0 0 81 75" fill="none" xmlns="http://www.w3.org/2000/svg">
<path fill-rule="evenodd" clip-rule="evenodd" d="M58.1716 0.918082L80.0386 22.7851C80.6228 23.3694 80.9567 24.1205 80.8732 24.9551C80.8732 25.7063 80.5394 26.5409 79.9552 27.1251L40.3942 66.6861H22.8672L7.59362 51.4126C7.00938 50.8284 6.67554 49.9937 6.67554 49.2426C6.67554 48.4914 7.00938 47.6568 7.59362 47.0726L53.8316 0.918082C54.4158 0.333848 55.2504 0 56.0016 0C56.7527 0 57.5873 0.333848 58.1716 0.918082ZM26.7899 61.8453H32.048H35.5534L18.6106 44.9025L14.1871 49.2426L26.7899 61.8453ZM22.8672 40.4791L40.3942 58.0061L73.3617 24.9551L55.8346 7.42812L22.8672 40.4791ZM63.8594 69C65.4773 69 67 70.3636 67 72C67 73.6364 65.5724 75 63.8594 75H3.14062C1.52273 75 0 73.6364 0 72C0 70.3636 1.52273 69 3.14062 69H63.8594Z" fill="white"/>
</svg>
