<svg width="79" height="60" viewBox="0 0 79 60" fill="none" xmlns="http://www.w3.org/2000/svg">
<path fill-rule="evenodd" clip-rule="evenodd" d="M12 0.5C5.64873 0.5 0.5 5.64872 0.5 12V48.3C0.5 54.6513 5.64872 59.8 12 59.8H67C73.3513 59.8 78.5 54.6513 78.5 48.3V12C78.5 5.64873 73.3513 0.5 67 0.5H12ZM3.5 12C3.5 7.30557 7.30558 3.5 12 3.5H20.5835V15.8836H3.5V12ZM3.5 16.3166V43.9835H20.5835V16.3166H3.5ZM3.5 44.4165V48.3C3.5 52.9944 7.30558 56.8 12 56.8H20.5835V44.4165H3.5ZM21.0165 56.8H58.0835V44.4165H21.0165V56.8ZM58.5165 56.8H67C71.6944 56.8 75.5 52.9944 75.5 48.3V44.4165H58.5165V56.8ZM75.5 43.9835V16.3166H58.5165V43.9835H75.5ZM75.5 15.8836V12C75.5 7.30558 71.6944 3.5 67 3.5H58.5165V15.8836H75.5ZM58.0835 3.5H21.0165V15.8836H58.0835V3.5ZM21.0165 16.3166H58.0835V43.9835H21.0165V16.3166ZM27.3 37.5C28 37.8 28.9 38 29.9 38C30.9 38 31.8 37.8 32.6 37.6C33.3 37.2 33.9001 36.6 34.4001 36C34.9001 35.4 35.1 34.6 35.1 33.8C35.1 32.9 34.8 32.1 34.3 31.4C33.7001 30.8 33 30.4 32 30.2V30.1C32.7001 29.8 33.4 29.4 33.8 28.8C34.3 28.2 34.5 27.5 34.5 26.6C34.5 25.9 34.4 25.2 34 24.6C33.6001 24 33.1 23.5 32.4 23.1C31.8 22.7 30.9 22.5 30 22.5C29.1 22.5 28.3001 22.7 27.6 23C26.8001 23.3 26.3 23.8 25.8 24.4C25.4 25 25.1 25.7 25.1 26.5H26.9C26.9 26 27.1 25.5 27.4 25.2C27.7 24.9 28 24.6 28.5 24.4C29 24.2 29.5 24.1 30 24.1C30.6 24.1 31.1 24.2 31.5 24.4C32 24.6 32.3 25 32.5 25.3C32.7001 25.6 32.8 26.1 32.8 26.6C32.8 27.1 32.7001 27.6 32.4 28C32.1 28.4 31.8 28.7 31.3 28.9C30.8 29.1 30.3001 29.2 29.7001 29.2H28.5V30.8H29.7001C30.5 30.8 31.2001 31 31.7001 31.2C32.2001 31.4 32.6001 31.8 32.9001 32.2C33.2001 32.6 33.3 33.1 33.3 33.7C33.3 34.2 33.2001 34.6 32.9001 35.1C32.6001 35.6 32.2001 35.9 31.7001 36.1C31.2001 36.3 30.7001 36.4 30 36.4C29.4 36.4 28.9 36.3 28.4 36.1C27.9 35.9 27.5 35.7 27.2001 35.3C26.9001 34.9 26.7001 34.5 26.7001 34H24.8C24.8 34.8 25.1 35.5 25.5 36.1C25.9 36.7 26.5 37.2 27.3 37.5ZM38.5 27.7C38.7001 28 39 28.1 39.4001 28.1C39.7001 28.1 39.8 28.1 40 28C40.2001 27.9 40.4001 27.7 40.5 27.5C40.6 27.3 40.7001 27 40.7001 26.8C40.7001 26.5 40.6 26.2 40.3 25.9C40.1 25.6 39.7001 25.5 39.4001 25.5C39.1001 25.5 38.8 25.6 38.5 25.9C38.2001 26.1 38.1 26.4 38.1 26.8C38.1 27.1 38.2001 27.4 38.5 27.7ZM38.5 35.4C38.7001 35.7 39 35.8 39.4001 35.8C39.5902 35.8 39.7402 35.7598 39.8501 35.7304C39.9134 35.7134 39.9634 35.7 40 35.7C40.2001 35.6 40.4001 35.4 40.5 35.2C40.6 35 40.7001 34.7 40.7001 34.5C40.7001 34.2 40.6 33.9 40.3 33.6C40.1 33.3 39.7001 33.2 39.4001 33.2C39.1001 33.2 38.8 33.3 38.5 33.6C38.2001 33.8 38.1 34.2 38.1 34.5C38.1 34.8 38.2001 35.1 38.5 35.4ZM43.6 34.6V33.1L50.3 22.5H50.7001H51.4001H52.5V33H54.6V34.6H52.5V37.8H50.7001V34.6H43.6ZM45.6 32.9L50.7001 24.9V33H45.6V32.9Z" fill="white"/>
</svg>
