<svg width="51" height="88" viewBox="0 0 51 88" fill="none" xmlns="http://www.w3.org/2000/svg">
<path fill-rule="evenodd" clip-rule="evenodd" d="M50.9799 11.9463C50.9799 5.59502 45.8312 0.446289 39.4799 0.446289H12.08C5.72867 0.446289 0.579956 5.59501 0.579956 11.9463V76.2463C0.579956 82.5976 5.72867 87.7463 12.08 87.7463H39.4799C45.8312 87.7463 50.9799 82.5976 50.9799 76.2463V11.9463ZM39.4799 3.44629C44.1744 3.44629 47.9799 7.25187 47.9799 11.9463V21.8836H35.8001V3.44629H39.4799ZM35.4001 3.44629V21.8836H16.0001V3.44629H35.4001ZM15.6001 3.44629V21.8836H3.57996V11.9463C3.57996 7.25187 7.38553 3.44629 12.08 3.44629H15.6001ZM15.6001 22.3166H3.57996V65.9837H15.6001V53.7H16.0001V65.9837H35.4001V53.7H35.8001V65.9837H47.9799V22.3166H35.8001V34.5H35.4001V22.3166H16.0001V34.5H15.6001V22.3166ZM35.4001 66.4167H16.0001V84.7463H35.4001V66.4167ZM35.8001 84.7463V66.4167H47.9799V76.2463C47.9799 80.9407 44.1744 84.7463 39.4799 84.7463H35.8001ZM15.6001 84.7463V66.4167H3.57996V76.2463C3.57996 80.9407 7.38553 84.7463 12.08 84.7463H15.6001ZM11.7999 51.7001V36.5001H9.99991L6.19992 39.0001V40.9001L9.89993 38.4001H9.99991V51.7001H11.7999ZM21.2999 51.9001C20.6999 51.9001 19.9999 51.8001 19.3999 51.5001C18.7999 51.3001 18.1999 50.9001 17.6999 50.3001C17.1999 49.8001 16.7999 49.0001 16.4999 48.1001C16.1999 47.2001 15.9999 46.0001 15.9999 44.6001C15.9999 43.2001 16.0999 42.0001 16.3999 41.0001C16.6999 40.0001 16.9999 39.1001 17.4999 38.3001C17.9999 37.6001 18.5999 37.0001 19.1999 36.7001C19.7999 36.4001 20.6999 36.1001 21.4999 36.1001C22.3999 36.1001 23.0999 36.3001 23.7999 36.6001C24.4999 36.9001 24.9999 37.4001 25.3999 38.0001C25.7999 38.6001 26.0999 39.3001 26.1999 40.1001H24.3999C24.1999 39.4001 23.8999 38.8001 23.3999 38.4001C22.8999 37.9001 22.2999 37.7001 21.4999 37.7001C20.2999 37.7001 19.3999 38.2001 18.6999 39.2001C17.9999 40.2001 17.6999 41.7001 17.6999 43.6001H17.7999C18.0999 43.2001 18.3999 42.8001 18.7999 42.5001C19.1999 42.2001 19.5999 42.0001 20.0999 41.8001C20.5999 41.6001 21.0999 41.6001 21.5999 41.6001C22.4999 41.6001 23.2999 41.8001 23.9999 42.3001C24.6999 42.7001 25.2999 43.3001 25.6999 44.1001C26.0999 44.9001 26.3999 45.7001 26.3999 46.7001C26.3999 47.6001 26.1999 48.5001 25.7999 49.3001C25.3999 50.1001 24.7999 50.7001 23.9999 51.2001C23.1999 51.7001 22.2999 51.9001 21.2999 51.9001ZM21.2999 50.3001C21.8999 50.3001 22.4999 50.1001 22.9999 49.8001C23.4999 49.5001 23.8999 49.1001 24.1999 48.5001C24.4999 48.0001 24.5999 47.4001 24.5999 46.7001C24.5999 46.1001 24.4999 45.5001 24.1999 45.0001C23.8999 44.5001 23.4999 44.1001 22.9999 43.8001C22.4999 43.5001 21.9999 43.3001 21.2999 43.3001C20.7999 43.3001 20.3999 43.4001 19.9999 43.6001C19.5999 43.8001 19.1999 44.0001 18.8999 44.4001C18.5999 44.8001 18.3999 45.1001 18.1999 45.5001C17.9999 45.9001 17.8999 46.3001 17.8999 46.8001C17.8999 47.4001 17.9999 48.0001 18.2999 48.5001C18.5999 49.0001 18.9999 49.5001 19.4999 49.8001C20.0999 50.1001 20.5999 50.3001 21.2999 50.3001ZM29.6999 41.6001C29.8999 41.9001 30.1999 42.0001 30.5999 42.0001C30.7999 42.0001 31.0999 42.0001 31.1999 41.9001C31.3999 41.8001 31.5999 41.6001 31.6999 41.4001C31.7999 41.2001 31.8999 40.9001 31.8999 40.7001C31.8999 40.4001 31.7999 40.1001 31.4999 39.8001C31.2999 39.5001 30.8999 39.4001 30.5999 39.4001C30.2999 39.4001 29.9999 39.5001 29.6999 39.8001C29.3999 40.0001 29.2999 40.4001 29.2999 40.7001C29.2999 41.0001 29.3999 41.3001 29.6999 41.6001ZM29.6999 49.3001C29.8999 49.6001 30.1999 49.7001 30.5999 49.7001C30.7999 49.7001 31.0999 49.7001 31.1999 49.6001C31.3999 49.5001 31.5999 49.3001 31.6999 49.1001C31.7999 48.9001 31.8999 48.6001 31.8999 48.4001C31.8999 48.1001 31.7999 47.8001 31.4999 47.5001C31.2999 47.2001 30.8999 47.1001 30.5999 47.1001C30.2999 47.1001 29.9999 47.2001 29.6999 47.5001C29.3999 47.7001 29.2999 48.1001 29.2999 48.4001C29.2999 48.7001 29.3999 49.0001 29.6999 49.3001ZM39.8999 36.2001C40.4999 36.2001 41.1999 36.3001 41.7999 36.6001C42.3999 36.8001 42.9999 37.2001 43.4999 37.8001C43.9999 38.3001 44.3999 39.1001 44.6999 40.0001C44.9999 40.9001 45.1999 42.1001 45.1999 43.5001C45.1999 44.9001 45.0999 46.1001 44.7999 47.1001C44.4999 48.1001 44.1999 49.0001 43.6999 49.8001C43.1999 50.5001 42.5999 51.1001 41.9999 51.4001C41.3999 51.7001 40.4999 52.0001 39.6999 52.0001C38.7999 52.0001 38.0999 51.8001 37.3999 51.5001C36.6999 51.2001 36.1999 50.7001 35.7999 50.1001C35.3999 49.5001 35.0999 48.8001 34.9999 48.0001H36.7999C36.9999 48.7001 37.2999 49.3001 37.7999 49.7001C38.2999 50.2001 38.8999 50.4001 39.6999 50.4001C40.8999 50.4001 41.7999 49.9001 42.4999 48.9001C43.1999 47.9001 43.4999 46.4001 43.4999 44.5001H43.3999L43.3997 44.5003C43.0998 44.9003 42.7998 45.3002 42.3999 45.6001C41.9999 45.9001 41.5999 46.1001 41.0999 46.3001C40.5999 46.5001 40.0999 46.5001 39.5999 46.5001C38.6999 46.5001 37.8999 46.3001 37.1999 45.8001C36.4999 45.3001 35.8999 44.8001 35.4999 44.0001C35.0999 43.2001 34.7999 42.4001 34.7999 41.4001C34.7999 40.5001 34.9999 39.6001 35.3999 38.8001C35.7999 38.0001 36.3999 37.4001 37.1999 36.9001C37.9999 36.4001 38.8999 36.2001 39.8999 36.2001ZM39.8999 37.9001C39.2999 37.9001 38.6999 38.1001 38.1999 38.4001C37.6999 38.7001 37.2999 39.1001 36.9999 39.7001C36.6999 40.3001 36.5999 40.8001 36.5999 41.5001C36.5999 42.1001 36.6999 42.7001 36.9999 43.2001C37.2999 43.7001 37.6999 44.1001 38.1999 44.4001C38.6999 44.7001 39.1999 44.9001 39.8999 44.9001C40.3999 44.9001 40.7999 44.8001 41.1999 44.6001C41.5999 44.4001 41.9999 44.2001 42.2999 43.8001C42.5999 43.5001 42.7999 43.1001 42.9999 42.7001C43.1999 42.3001 43.2999 41.9001 43.2999 41.4001C43.2999 40.8001 43.1999 40.2001 42.8999 39.7001C42.5999 39.2001 42.1999 38.7001 41.6999 38.4001C41.0999 38.0001 40.4999 37.9001 39.8999 37.9001Z" fill="white"/>
</svg>
