<svg width="68" height="76" viewBox="0 0 68 76" fill="none" xmlns="http://www.w3.org/2000/svg">
<path fill-rule="evenodd" clip-rule="evenodd" d="M53.0732 36.4506L53.9024 36.6875C54.7317 36.9244 55.4425 37.2798 56.1533 37.6352V62.5133C56.1533 69.8582 50.1115 75.9001 42.7665 75.9001H13.3868C6.04181 75.9001 0 69.8582 0 62.5133V13.5865C0 6.24152 6.04181 0.199707 13.3868 0.199707H42.7665C50.1115 0.199707 56.1533 6.24152 56.1533 13.5865V15.6004C54.8502 14.5342 53.784 13.468 52.9547 12.1649C52.7178 10.0325 51.77 8.25546 50.4669 6.71539L49.6376 3.99065L49.1638 5.53072C47.3867 4.10911 45.1359 3.27985 42.7665 3.27985H13.3868C7.70035 3.27985 3.08014 7.90005 3.08014 13.5865V62.5133C3.08014 68.1997 7.70035 72.8199 13.3868 72.8199H42.7665C48.453 72.8199 53.0732 68.1997 53.0732 62.5133V48.8896L55.9164 48.0603L53.0732 47.2311V36.4506ZM38.1464 19.5098C43.5958 21.1684 47.9791 25.4332 49.6376 31.0011C51.2962 25.5517 55.561 21.1684 61.1289 19.5098C55.6795 17.8513 51.2962 13.5865 49.6376 8.01855C47.9791 13.468 43.7143 17.7328 38.1464 19.5098ZM54.2579 35.5029C57.5749 36.4506 60.1812 39.0569 61.1289 42.374C62.1951 39.0569 64.6829 36.4506 68 35.5029C64.6829 34.5551 62.0767 31.9489 61.1289 28.6318C60.0627 31.9489 57.4565 34.4367 54.2579 35.5029ZM40.5157 48.0604C43.2404 48.8896 45.3728 51.022 46.2021 53.7468C47.0314 51.022 49.1638 48.8896 51.8885 48.0604C49.1638 47.2311 47.0314 45.0987 46.2021 42.374C45.3728 45.0987 43.2404 47.2311 40.5157 48.0604ZM26.7735 29.1057C27.9582 30.6457 29.3798 31.9489 30.8014 33.1335C29.2613 34.3182 27.9582 35.7398 26.7735 37.1614C25.5889 35.6213 24.1673 34.3182 22.7457 33.1335C24.1673 32.0673 25.5889 30.6457 26.7735 29.1057ZM26.7735 19.5098C24.7596 26.144 19.6655 31.2381 13.0314 33.252C19.6655 35.2659 24.7596 40.36 26.7735 46.9942C28.7875 40.36 33.8815 35.2659 40.5157 33.252C33.8815 31.2381 28.7875 26.0255 26.7735 19.5098ZM56.1534 33.3705V23.4193C54.9687 24.367 54.021 25.4332 53.0732 26.6179V34.5552L53.9025 34.3182C54.7318 34.0813 55.4426 33.7259 56.1534 33.3705Z" fill="white"/>
</svg>
