<svg width="742" height="620" fill="none" xmlns="http://www.w3.org/2000/svg"><path d="M624.167 52.306c36.451 0 66 29.549 66 66v383.388c0 36.451-29.55 66-66 66H117.833c-36.45 0-66-29.549-66-66V118.306c0-36.451 29.55-66 66-66h506.334ZM742 66.382c0-36.45-29.549-66-66-66H66c-36.45 0-66 29.55-66 66v487.236c0 36.451 29.55 66 66 66h610c36.451 0 66-29.549 66-66V66.382Z" fill="#4090EF" fill-opacity=".2"/><path d="M356.208 338.5 428 224.5 599 481H143l142.5-198.36 70.708 55.86ZM200 139c-31.464 0-57 25.536-57 57 0 31.493 25.536 57 57 57s57-25.507 57-57c0-31.464-25.536-57-57-57Z" fill="#4090EF" fill-opacity=".2"/></svg>