<svg version="1.1" id="Layer_1" xmlns="http://www.w3.org/2000/svg" x="0" y="0" viewBox="0 0 742 620" style="enable-background:new 0 0 742 620" xml:space="preserve"><style>.st0{fill:#4090ef}</style><path class="st0" d="M370.8 613.3c-96.5 0-192.9.1-289.4 0-37.4 0-67.4-23-75.7-58.2-1.5-6.5-2.1-13.5-2.1-20.2-.1-149.9-.1-299.8 0-449.8 0-45.9 32.7-78.4 78.6-78.4h578c45.4 0 78.2 32.7 78.3 78 .1 150.1.1 300.3 0 450.4 0 45.4-32.8 78-78.2 78.1-96.6.1-193 .1-289.5.1zm.3-571.6H82.5c-27 0-43.9 16.7-43.9 43.5v449.7c0 26.3 17 43.3 43.3 43.3 28.2.1 56.4 0 84.5 0 12.9 0 17.6-3.5 22.1-15.7 5.8-15.4 11.2-31 17.9-46.1 27.5-62 67.2-114.6 123.1-153.9 67.4-47.4 143.7-66.5 224.8-69.9 42.1-1.8 84 1.5 125.7 7.4 15.3 2.2 23.4-5.1 23.4-20.7V86.9c0-28.8-16.3-45.1-45.2-45.1-95.7-.1-191.4-.1-287.1-.1z"/><path class="st0" d="M207.7 310.5c-54.6 0-98.9-44.4-99-99.4-.1-54.7 44.4-99.5 98.9-99.4 54.5 0 99 44.7 99 99.4 0 55-44.2 99.4-98.9 99.4z"/></svg>